<?xml version="1.0" standalone="no"?>
<!DOCTYPE svg PUBLIC "-//W3C//DTD SVG 20010904//EN"
 "http://www.w3.org/TR/2001/REC-SVG-20010904/DTD/svg10.dtd">
<svg version="1.0" xmlns="http://www.w3.org/2000/svg"
 width="962.000000pt" height="1024.000000pt" viewBox="0 0 962.000000 1024.000000"
 preserveAspectRatio="xMidYMid meet">

<g transform="translate(0.000000,1024.000000) scale(0.100000,-0.100000)"
fill="#000000" stroke="none">
<path d="M4615 10050 c-5 -17 -12 -20 -32 -15 -14 3 -39 8 -57 11 l-31 4 28
-11 c34 -13 35 -27 2 -35 -14 -3 -25 -10 -25 -15 0 -5 -9 -9 -21 -9 -11 0 -30
-5 -41 -11 -14 -8 -23 -8 -31 0 -6 6 -18 11 -28 11 -12 0 -15 -6 -11 -25 4
-22 1 -25 -23 -25 -26 0 -27 -1 -23 -57 3 -56 2 -58 -20 -55 -13 1 -38 -9 -56
-23 -27 -21 -40 -24 -88 -20 -41 3 -59 0 -68 -10 -19 -23 -52 -18 -76 12 -21
27 -23 27 -42 10 -19 -18 -21 -18 -40 3 l-20 22 -24 -28 c-47 -56 -90 -94
-107 -94 -10 0 -26 -9 -36 -20 -10 -11 -24 -20 -31 -20 -7 0 -26 -8 -43 -17
-26 -15 -34 -16 -51 -5 -12 7 -25 10 -29 8 -10 -6 -24 -43 -40 -103 -9 -31
-20 -47 -42 -58 -16 -9 -34 -13 -39 -10 -5 3 -17 -12 -26 -34 -9 -23 -21 -41
-26 -41 -5 0 -23 14 -40 30 -20 20 -36 29 -48 25 -21 -7 -60 30 -60 56 0 11
-7 17 -17 17 -10 -1 -35 4 -56 11 -34 11 -41 11 -58 -5 -10 -9 -19 -23 -19
-31 0 -31 -40 -91 -70 -103 -42 -17 -46 -28 -20 -55 25 -27 20 -69 -8 -63 -12
3 -16 12 -14 32 3 23 0 27 -13 22 -9 -3 -19 -6 -21 -6 -3 0 2 -13 11 -29 8
-17 25 -31 37 -33 13 -2 24 -11 26 -23 2 -11 17 -33 32 -50 34 -35 61 -85 54
-97 -3 -4 -13 -8 -24 -8 -10 0 -20 -7 -24 -15 -3 -9 -18 -15 -39 -15 -19 0
-40 -6 -46 -14 -28 -33 -290 -66 -312 -39 -7 8 -19 11 -26 8 -8 -2 -23 0 -34
5 -15 9 -17 15 -9 30 15 28 12 39 -10 33 -18 -5 -33 -30 -29 -49 8 -48 -27
-44 -41 4 -18 66 -25 68 -48 13 -12 -27 -22 -56 -22 -63 0 -7 -7 -22 -15 -32
-11 -14 -12 -23 -4 -32 6 -7 8 -22 4 -33 -4 -15 -19 -21 -68 -26 -113 -12
-233 -62 -243 -100 -3 -14 -10 -25 -15 -25 -5 0 -9 -6 -9 -14 0 -17 -27 -27
-84 -30 -30 -2 -42 -7 -44 -20 -3 -14 -10 -17 -33 -12 -22 4 -29 2 -29 -10 0
-8 6 -14 13 -12 6 1 32 -16 57 -39 35 -33 42 -45 33 -54 -19 -19 -59 4 -82 48
-23 44 -26 35 -9 -37 8 -36 9 -57 1 -68 -9 -15 -9 -39 1 -107 1 -11 8 -30 14
-42 20 -37 15 -46 -23 -39 -28 6 -35 4 -35 -9 0 -8 -4 -15 -10 -15 -5 0 -8
-21 -7 -46 2 -38 6 -48 23 -55 19 -6 23 -3 28 23 3 18 11 28 18 25 7 -2 12 -9
11 -14 -1 -6 9 -8 22 -5 21 4 25 0 25 -21 0 -16 7 -28 18 -31 9 -3 -5 -3 -32
0 -37 4 -47 3 -44 -8 3 -7 18 -15 34 -16 43 -5 62 -27 62 -72 1 -35 -2 -40
-22 -40 -28 0 -59 -31 -38 -37 29 -10 8 -23 -39 -23 -31 0 -48 4 -44 10 3 6
-3 10 -14 10 -23 0 -26 -7 -12 -29 6 -9 6 -22 0 -33 -12 -23 14 -36 35 -19 19
16 32 -5 15 -25 -10 -12 -9 -16 9 -21 13 -3 22 -13 22 -24 0 -11 8 -22 18 -26
38 -14 43 -24 22 -50 -11 -14 -20 -36 -20 -48 0 -12 -7 -28 -15 -35 -19 -16
-19 -20 4 -49 16 -20 21 -22 41 -11 33 18 45 -1 19 -34 -14 -18 -24 -50 -30
-94 -4 -37 -13 -84 -19 -105 -6 -21 -9 -51 -5 -66 3 -15 1 -40 -4 -54 -9 -24
-8 -27 9 -27 27 0 25 -25 -2 -44 -30 -21 -18 -29 44 -30 50 -1 53 -3 56 -28 2
-15 -2 -37 -8 -49 -11 -20 -11 -21 16 -15 15 4 40 16 55 27 40 28 57 24 74
-18 9 -21 23 -44 32 -50 9 -7 19 -36 24 -67 7 -56 54 -166 70 -166 19 0 8 -48
-16 -70 -37 -35 -32 -84 9 -88 19 -2 37 4 55 20 14 13 36 29 48 36 22 12 23
11 23 -26 0 -21 -7 -47 -15 -59 -17 -25 -33 -139 -18 -130 6 4 11 -16 12 -51
3 -109 17 -186 32 -177 5 4 12 -1 15 -9 3 -9 12 -16 20 -16 18 0 18 -12 -3
-71 -18 -50 -37 -61 -57 -35 -13 18 -66 32 -66 18 0 -5 15 -16 33 -23 17 -7
38 -19 46 -26 13 -14 85 -53 96 -53 8 0 28 52 28 73 -1 45 -5 54 -28 79 -31
33 -31 38 -2 38 26 0 51 -45 63 -112 3 -21 10 -38 15 -38 5 0 9 -8 9 -17 0
-16 1 -16 18 0 16 17 16 19 0 28 -10 6 -18 19 -18 29 0 11 -6 20 -12 20 -10 0
-10 2 -1 8 14 9 12 70 -3 93 -5 8 -9 25 -10 39 -3 44 -10 62 -28 75 -11 8 -13
15 -7 20 16 10 13 45 -4 45 -8 0 -15 5 -15 10 0 6 6 10 14 10 20 0 40 94 25
122 -8 14 -7 28 2 50 8 20 9 32 2 36 -17 11 -8 55 12 62 13 5 15 9 7 14 -20
12 -14 29 8 23 15 -4 20 0 20 14 0 11 4 27 9 37 5 9 15 31 23 47 12 29 14 30
31 13 16 -17 16 -18 -5 -18 -23 0 -23 -1 2 -13 34 -18 57 -10 65 21 3 14 9 21
13 15 9 -13 42 -13 42 1 0 6 5 4 10 -4 6 -10 10 -11 10 -3 0 15 73 63 94 63
13 0 42 35 58 70 4 10 7 10 7 3 1 -7 6 -13 11 -13 6 0 10 12 9 28 -2 30 17 83
33 93 5 4 10 23 10 43 0 25 6 41 22 52 14 12 16 15 4 11 -25 -9 -30 7 -13 39
14 28 11 49 -6 38 -5 -3 -6 -10 -3 -16 4 -6 1 -9 -7 -6 -8 3 -15 14 -17 26 -2
15 6 25 33 37 28 14 33 20 24 31 -9 11 -8 18 4 32 8 9 19 30 23 46 6 25 5 28
-11 22 -14 -5 -16 -2 -11 16 3 13 6 31 6 41 0 9 5 17 10 17 6 0 10 -10 10 -22
0 -33 13 -12 14 23 1 39 27 59 51 39 10 -9 12 -15 5 -20 -6 -4 20 -12 57 -19
51 -9 87 -9 143 0 41 6 83 11 93 12 11 1 15 7 12 15 -3 10 0 12 10 9 8 -4 27
0 42 8 15 8 33 15 39 15 5 0 23 13 39 30 15 16 32 27 37 23 18 -10 129 -13
123 -3 -10 16 3 12 45 -15 22 -14 44 -25 50 -25 6 0 32 -10 58 -22 42 -20 62
-23 177 -22 72 0 172 3 224 5 64 3 96 0 98 -7 2 -6 -5 -14 -17 -17 -38 -10
-20 -22 26 -18 31 2 50 -1 56 -10 7 -10 8 -7 6 11 -4 23 -1 25 40 28 35 2 43
0 34 -10 -8 -10 2 -13 49 -13 36 0 61 5 63 12 4 9 -9 10 -46 6 -37 -5 -49 -3
-44 5 4 7 22 13 39 14 27 1 25 2 -13 8 l-45 7 37 1 c30 2 88 -16 117 -35 2 -1
-2 -9 -9 -18 -7 -8 -8 -15 -3 -15 6 0 8 -11 5 -25 -5 -29 3 -32 25 -9 13 13
14 17 3 24 -19 11 -3 30 26 30 21 0 24 -4 19 -20 -8 -24 2 -25 43 -4 28 14 33
14 57 -2 24 -16 27 -16 45 1 19 17 20 17 20 -3 0 -11 5 -24 10 -27 6 -4 10 5
10 21 0 15 3 24 7 21 3 -4 12 1 19 11 13 16 13 16 14 -2 0 -16 2 -17 17 -5 15
12 16 12 11 -7 -3 -14 2 -27 17 -40 12 -10 20 -25 18 -31 -3 -7 0 -13 6 -13 6
0 11 5 11 10 0 6 8 10 17 10 13 0 14 3 5 12 -19 19 -14 33 6 15 10 -10 27 -17
38 -17 21 0 46 14 45 24 -2 10 3 10 24 -1 18 -11 19 -12 3 -18 -10 -4 -18 -10
-18 -14 0 -7 100 -5 142 3 32 6 60 -2 52 -15 -3 -5 6 -9 20 -9 13 0 27 6 29
13 4 9 6 9 6 -1 1 -7 -9 -17 -21 -22 l-23 -9 22 0 c15 -1 23 -8 25 -23 3 -21
8 -23 52 -19 42 3 48 1 43 -13 -4 -10 -1 -16 9 -16 8 0 20 -12 26 -27 l11 -28
7 30 c4 17 8 24 9 17 0 -7 6 -10 11 -7 6 3 10 -1 10 -9 0 -9 9 -25 20 -36 11
-11 20 -27 20 -35 0 -8 5 -15 10 -15 6 0 10 5 10 11 0 8 5 8 15 -1 23 -19 20
16 -5 42 -10 12 -17 25 -14 30 4 6 11 0 18 -12 6 -13 14 -21 17 -19 7 5 34
-22 42 -41 4 -10 6 -8 6 7 1 29 18 38 37 19 8 -9 20 -16 27 -16 6 0 2 7 -9 16
-10 8 -14 13 -7 10 6 -4 13 -2 15 2 1 5 16 12 31 16 18 4 26 3 23 -3 -4 -6 1
-14 11 -19 21 -10 103 5 103 19 0 12 -37 12 -45 -1 -9 -14 -42 -12 -42 3 0 6
11 13 24 14 13 1 29 3 36 3 6 1 23 -1 37 -5 33 -9 40 -9 73 0 17 5 27 3 27 -4
0 -6 -7 -11 -16 -11 -9 0 -12 -5 -8 -12 5 -8 -4 -9 -32 -5 -23 4 -33 3 -25 -2
7 -5 10 -14 7 -20 -15 -24 41 -10 77 20 20 17 41 28 46 24 6 -3 15 4 21 15 6
11 16 18 21 14 6 -3 13 3 16 15 7 29 39 27 67 -4 13 -14 28 -25 33 -25 5 0 15
-12 21 -26 9 -19 17 -24 33 -19 20 7 55 -25 70 -64 9 -23 0 -34 -16 -21 -10 8
-19 9 -32 1 -17 -10 -17 -10 0 -11 9 0 17 -5 17 -10 0 -6 11 -22 24 -35 13
-13 28 -41 33 -62 5 -22 15 -38 23 -38 11 0 14 -10 12 -38 -2 -28 1 -37 13
-37 27 0 30 3 27 22 -2 10 2 18 7 18 6 0 11 8 11 18 0 13 -2 14 -9 3 -7 -11
-11 -9 -20 7 -9 18 -8 25 9 42 11 11 20 25 20 30 0 6 5 10 11 10 6 0 8 -9 4
-20 -6 -17 -2 -20 30 -20 28 0 37 -5 44 -22 10 -27 2 -46 -10 -27 -10 17 -12
-1 -3 -25 6 -15 8 -15 20 1 7 10 14 27 14 39 0 11 3 23 6 27 10 9 35 -4 28
-15 -6 -9 12 -27 27 -28 9 0 6 57 -4 66 -12 12 -8 24 8 24 9 0 18 -7 21 -15 4
-8 17 -15 29 -15 13 0 27 -4 30 -10 10 -16 25 -12 25 6 0 14 2 14 16 3 14 -11
18 -10 31 6 14 19 13 31 -2 68 -5 12 -2 17 9 17 18 0 22 40 5 57 -7 7 -7 32
-1 79 6 43 6 79 0 96 -7 19 -5 36 6 60 8 18 17 42 19 53 4 17 5 17 6 -4 1 -17
5 -21 17 -17 9 3 17 6 20 6 2 0 1 14 -2 30 -9 43 21 41 31 -2 l7 -33 11 33 c5
17 13 32 18 32 22 0 59 -21 59 -34 0 -8 10 -16 22 -18 28 -4 38 -38 12 -38
-16 0 -15 -2 4 -16 12 -8 22 -26 22 -40 0 -17 5 -24 20 -24 13 0 20 7 20 19 0
24 16 36 26 20 4 -7 18 9 36 40 28 47 28 52 14 73 -24 33 -20 48 12 48 24 0
28 4 30 30 1 19 -5 37 -17 49 -11 11 -24 42 -30 68 -5 26 -12 59 -16 73 -5 21
-4 21 7 -4 12 -25 15 -26 26 -13 14 17 67 16 85 -2 15 -15 27 -14 27 2 0 7
-13 26 -30 42 -16 16 -28 31 -25 33 3 3 -3 14 -12 24 -10 12 -13 22 -7 28 10
10 133 16 169 9 22 -4 29 21 7 29 -8 2 -10 -3 -6 -15 5 -13 2 -12 -10 5 -10
12 -22 19 -28 16 -8 -5 -9 -1 -5 10 4 10 7 20 7 22 0 9 51 3 68 -7 13 -8 27
-7 56 5 l38 16 -21 25 c-11 15 -35 36 -53 48 -26 18 -33 30 -34 56 -1 20 -10
41 -24 54 l-22 22 6 -27 c3 -16 2 -28 -2 -28 -26 0 -73 25 -87 46 -8 13 -22
24 -30 24 -7 0 -17 5 -20 10 -4 7 3 8 22 4 25 -7 27 -6 15 9 -8 9 -23 17 -34
19 -23 3 -34 48 -12 48 6 0 14 9 17 20 4 17 9 19 32 10 36 -14 37 -13 24 13
-14 26 -31 39 -39 28 -3 -4 -17 -11 -32 -15 -27 -6 -28 -5 -28 33 l0 40 -35
-6 c-26 -4 -36 -2 -41 11 -3 9 -11 13 -17 9 -6 -4 -8 0 -4 10 4 11 2 14 -9 10
-9 -3 -27 0 -41 8 -22 12 -25 18 -20 58 3 25 12 50 21 57 12 8 15 20 10 38 -4
18 -2 26 7 26 9 1 8 4 -3 11 -10 5 -33 9 -52 7 -19 -2 -35 0 -35 5 0 16 -35
66 -43 61 -9 -6 -68 23 -68 34 1 4 9 17 20 30 21 25 60 23 60 -4 0 -8 5 -14
11 -14 6 0 9 -7 5 -15 -4 -12 -2 -13 14 -3 10 7 18 16 17 22 -1 5 9 15 23 23
25 13 25 13 -10 13 -23 0 -45 9 -64 25 -39 33 -52 32 -59 -8 -3 -18 -19 -47
-35 -65 -29 -31 -31 -32 -37 -12 -4 14 -12 19 -21 16 -8 -3 -13 -2 -10 3 3 5
0 11 -8 14 -17 7 -10 57 11 74 22 17 5 21 -80 20 l-77 -2 0 -30 c0 -38 -29
-60 -54 -42 -17 13 -13 47 5 47 5 0 9 11 9 25 0 17 6 25 17 25 9 0 24 7 34 16
10 9 39 19 64 22 42 4 45 6 30 22 -25 27 -18 32 34 25 46 -6 49 -5 44 13 -3
14 -17 22 -46 26 -96 15 -146 17 -181 8 -34 -10 -38 -9 -46 14 -7 18 -17 24
-40 24 -23 0 -35 8 -55 38 -107 157 -109 160 -134 145 -11 -7 -29 -13 -38 -12
-12 0 -13 2 -5 6 10 4 10 8 1 19 -19 23 3 39 32 23 17 -9 24 -9 27 0 5 14 32
15 32 1 0 -5 3 -10 8 -10 4 0 7 26 7 57 0 57 -1 58 -40 80 -22 13 -54 23 -71
23 -17 0 -49 7 -69 16 -21 8 -47 13 -57 11 -12 -4 -24 3 -35 19 -8 13 -45 40
-82 60 -65 36 -67 38 -95 113 -41 107 -51 115 -53 40 -2 -60 -11 -87 -20 -61
-3 7 -14 17 -25 23 -16 9 -19 8 -18 -8 1 -10 2 -31 1 -46 -2 -43 -41 -33 -64
16 -15 33 -29 49 -26 30 4 -24 -4 -33 -26 -33 -18 0 -25 -5 -25 -20 0 -11 4
-20 8 -20 4 0 9 -15 10 -32 1 -18 -1 -28 -5 -23 -5 6 -33 27 -64 49 -54 36
-75 66 -94 134 -6 20 -19 26 -54 24 -18 -1 -40 27 -41 50 0 28 -55 49 -138 54
-42 3 -95 7 -116 9 -29 3 -43 0 -52 -12 -10 -14 -15 -15 -27 -4 -9 7 -18 25
-20 39 -3 23 -5 20 -12 -15 -8 -46 -18 -52 -46 -27 -15 13 -23 14 -54 4 -45
-15 -85 -6 -85 19 0 10 -9 29 -20 42 l-21 24 3 -29 c4 -35 -21 -49 -29 -17 -3
12 -10 21 -15 21 -5 0 -7 4 -4 9 3 5 -6 9 -20 9 -19 0 -24 -4 -18 -17 14 -35
16 -51 5 -51 -7 0 -19 16 -27 35 -8 19 -19 35 -24 35 -6 0 -10 5 -10 11 0 10
-58 69 -116 118 -16 13 -45 26 -65 28 -31 5 -38 2 -44 -17z m-59 -180 c17 0
24 -6 24 -19 0 -11 8 -22 18 -24 9 -3 -1 -5 -23 -6 -26 0 -48 7 -63 19 -25 20
-21 46 5 36 8 -3 26 -6 39 -6z m-236 -80 c0 -5 -4 -10 -10 -10 -5 0 -10 5 -10
10 0 6 5 10 10 10 6 0 10 -4 10 -10z m290 -3 c0 -8 -7 -14 -15 -14 -8 0 -15 6
-15 14 0 7 7 13 15 13 8 0 15 -6 15 -13z m-73 -49 c-3 -8 -6 -5 -6 6 -1 11 2
17 5 13 3 -3 4 -12 1 -19z m1075 -43 c0 -5 -5 -11 -11 -13 -6 -2 -11 4 -11 13
0 9 5 15 11 13 6 -2 11 -8 11 -13z m-2055 -457 c-3 -8 -6 -5 -6 6 -1 11 2 17
5 13 3 -3 4 -12 1 -19z m-1033 -230 c-3 -4 -9 -8 -15 -8 -5 0 -9 4 -9 8 0 5 7
9 15 9 8 0 12 -4 9 -9z m4163 -120 c-3 -8 -6 -5 -6 6 -1 11 2 17 5 13 3 -3 4
-12 1 -19z m-17 -82 c0 -3 -4 -8 -10 -11 -5 -3 -10 -1 -10 4 0 6 5 11 10 11 6
0 10 -2 10 -4z m-4445 -157 c12 -19 -5 -23 -22 -6 -16 16 -16 17 -1 17 9 0 20
-5 23 -11z m142 -24 c8 -24 -3 -29 -27 -12 -15 11 -18 16 -8 20 22 9 28 8 35
-8z m-47 -24 c0 -5 11 -12 25 -15 25 -6 34 -29 16 -40 -16 -10 -41 5 -41 25 0
10 -7 19 -15 19 -8 0 -15 5 -15 10 0 6 7 10 15 10 8 0 15 -4 15 -9z m4700 -58
c0 -7 -7 -13 -15 -13 -16 0 -19 9 -9 35 5 13 8 14 15 3 5 -7 9 -19 9 -25z m82
-11 c-6 -16 -7 -16 -10 1 -2 9 -11 17 -20 17 -14 0 -15 2 -2 10 19 12 41 -6
32 -28z m38 18 c0 -5 -5 -10 -11 -10 -5 0 -7 5 -4 10 3 6 8 10 11 10 2 0 4 -4
4 -10z m30 -105 c7 -9 10 -18 6 -22 -3 -3 -6 -1 -6 5 0 6 -7 9 -15 6 -9 -4
-15 0 -15 10 0 20 14 21 30 1z m50 -53 c0 -10 -6 -12 -22 -7 -13 4 -33 7 -45
7 -13 0 -23 4 -23 8 0 5 20 8 45 8 32 -1 45 -5 45 -16z m-5075 -22 c23 -26 8
-26 -25 0 -18 14 -21 20 -9 20 9 0 24 -9 34 -20z m4925 4 c0 -8 -5 -12 -10 -9
-6 4 -8 11 -5 16 9 14 15 11 15 -7z m-4773 0 c-3 -3 -12 -4 -19 -1 -8 3 -5 6
6 6 11 1 17 -2 13 -5z m4958 -14 c-3 -5 -12 -10 -18 -10 -7 0 -6 4 3 10 19 12
23 12 15 0z m49 -31 c-7 -13 -24 7 -24 29 0 10 4 10 16 -2 8 -9 12 -21 8 -27z
m24 -190 c35 -12 51 -39 23 -39 -10 0 -21 7 -25 15 -3 8 -12 15 -21 15 -8 0
-15 5 -15 10 0 12 0 12 38 -1z m192 -59 c8 -5 11 -12 8 -16 -10 -9 -38 3 -38
16 0 12 10 13 30 0z m20 -66 c0 -13 -7 -15 -31 -10 -17 3 -39 6 -48 7 -26 1
19 17 52 18 19 1 27 -4 27 -15z m66 -6 c9 -14 -2 -21 -25 -13 -28 8 -28 35 -1
28 11 -3 23 -10 26 -15z m-516 -222 c0 -3 -4 -8 -10 -11 -5 -3 -10 -1 -10 4 0
6 5 11 10 11 6 0 10 -2 10 -4z m-3607 -113 c-7 -2 -21 -2 -30 0 -10 3 -4 5 12
5 17 0 24 -2 18 -5z m-45 -38 c1 -16 -3 -25 -13 -25 -8 0 -15 -4 -15 -9 0 -10
-40 -19 -58 -13 -7 2 -12 12 -12 23 0 14 7 19 25 19 14 0 28 7 31 15 10 25 39
18 42 -10z m82 -15 c0 -5 -5 -10 -10 -10 -6 0 -24 -16 -41 -35 -38 -43 -98
-64 -133 -46 -13 7 -33 10 -45 6 -14 -4 -21 -2 -21 7 0 8 -12 19 -27 26 -25
10 -22 11 27 7 124 -12 184 -14 162 -7 l-23 7 21 18 c11 9 29 17 40 17 11 0
20 5 20 10 0 6 7 10 15 10 8 0 15 -4 15 -10z m3634 -82 c-3 -5 -12 0 -20 11
-8 11 -28 21 -46 23 -36 3 -49 25 -21 34 10 3 25 9 33 13 11 6 21 -2 37 -31
13 -22 20 -44 17 -50z m-3574 47 c0 -8 -4 -15 -10 -15 -5 0 -7 7 -4 15 4 8 8
15 10 15 2 0 4 -7 4 -15z m3434 -1 c8 -21 8 -24 -5 -24 -5 0 -7 5 -4 10 3 6 1
10 -4 10 -6 0 -11 5 -11 10 0 16 17 12 24 -6z m-2234 -36 c0 -17 -3 -19 -9 -9
-5 7 -15 17 -22 22 -10 6 -8 9 9 9 16 0 22 -6 22 -22z m-1530 -8 c0 -5 -5 -10
-11 -10 -5 0 -7 5 -4 10 3 6 8 10 11 10 2 0 4 -4 4 -10z m1710 -40 c0 -5 -7
-10 -16 -10 -8 0 -12 5 -9 10 3 6 10 10 16 10 5 0 9 -4 9 -10z m-2900 -101
c-6 -10 -15 -19 -20 -19 -15 0 -12 38 3 43 20 7 28 -3 17 -24z m3780 21 c0 -5
-2 -10 -4 -10 -3 0 -8 5 -11 10 -3 6 -1 10 4 10 6 0 11 -4 11 -10z m-2769 -53
c-13 -13 -26 -3 -16 12 3 6 11 8 17 5 6 -4 6 -10 -1 -17z m3136 -3 c-3 -3 -12
-4 -19 -1 -8 3 -5 6 6 6 11 1 17 -2 13 -5z m171 -12 c2 -7 -2 -10 -12 -6 -9 3
-16 11 -16 16 0 13 23 5 28 -10z m-448 -11 c0 -19 -29 -33 -47 -22 -16 9 -16
11 7 20 32 13 40 13 40 2z m231 -11 c11 0 17 -4 14 -10 -6 -10 -75 -11 -75 0
0 13 14 21 28 15 7 -3 23 -5 33 -5z m-3224 -132 c-3 -8 -6 -5 -6 6 -1 11 2 17
5 13 3 -3 4 -12 1 -19z m49 -55 c-11 -11 -19 6 -11 24 8 17 8 17 12 0 3 -10 2
-21 -1 -24z m3791 -5 c-3 -8 -6 -5 -6 6 -1 11 2 17 5 13 3 -3 4 -12 1 -19z
m36 -28 c-17 -15 -103 -39 -108 -29 -4 5 4 9 17 9 13 0 36 9 52 19 27 18 59
19 39 1z m-269 -60 c-6 -5 -24 21 -24 34 0 6 6 1 14 -10 8 -10 12 -21 10 -24z
m321 31 c3 -5 1 -12 -5 -16 -5 -3 -10 1 -10 9 0 18 6 21 15 7z m-4044 -154
c-10 -9 -11 -8 -5 6 3 10 9 15 12 12 3 -3 0 -11 -7 -18z m-229 -235 c-7 -2
-12 -10 -12 -18 0 -8 -7 -14 -16 -14 -9 0 -12 5 -8 13 16 24 29 35 39 29 5 -3
4 -7 -3 -10z m-22 -99 c0 -7 -4 -13 -10 -13 -5 0 -10 12 -10 28 0 21 2 24 10
12 5 -8 10 -21 10 -27z m0 -80 c0 -10 3 -28 6 -40 4 -13 2 -23 -4 -23 -5 0
-12 10 -15 23 -2 12 -8 30 -12 40 -5 12 -3 17 9 17 9 0 16 -8 16 -17z m30 2
c0 -8 -4 -15 -10 -15 -5 0 -10 7 -10 15 0 8 5 15 10 15 6 0 10 -7 10 -15z
m-153 -27 c-3 -7 -5 -2 -5 12 0 14 2 19 5 13 2 -7 2 -19 0 -25z m128 -178 c3
-5 1 -10 -4 -10 -6 0 -11 5 -11 10 0 6 2 10 4 10 3 0 8 -4 11 -10z m15 -71 c0
-20 -15 -26 -25 -9 -9 15 3 43 15 35 5 -3 10 -15 10 -26z m27 -51 c-3 -8 -6
-5 -6 6 -1 11 2 17 5 13 3 -3 4 -12 1 -19z"/>
<path d="M3375 7610 c3 -5 8 -10 11 -10 2 0 4 5 4 10 0 6 -5 10 -11 10 -5 0
-7 -4 -4 -10z"/>
<path d="M4860 9991 c0 -5 7 -15 17 -22 15 -13 15 -12 4 9 -12 23 -21 28 -21
13z"/>
<path d="M4915 9940 c3 -5 8 -10 11 -10 2 0 4 5 4 10 0 6 -5 10 -11 10 -5 0
-7 -4 -4 -10z"/>
<path d="M5836 9727 c3 -10 9 -15 12 -12 3 3 0 11 -7 18 -10 9 -11 8 -5 -6z"/>
<path d="M6960 8910 c0 -5 9 -10 20 -10 10 0 23 -8 29 -17 5 -10 13 -14 18
-10 9 10 -33 47 -53 47 -8 0 -14 -4 -14 -10z"/>
<path d="M7370 8391 c0 -5 5 -13 10 -16 6 -3 10 -2 10 4 0 5 -4 13 -10 16 -5
3 -10 2 -10 -4z"/>
<path d="M1835 8280 c-3 -5 -2 -10 4 -10 5 0 13 5 16 10 3 6 2 10 -4 10 -5 0
-13 -4 -16 -10z"/>
<path d="M7570 7870 c0 -5 9 -14 20 -20 16 -8 18 -8 14 4 -6 17 -34 30 -34 16z"/>
<path d="M7400 7705 c7 -9 15 -13 17 -11 7 7 -7 26 -19 26 -6 0 -6 -6 2 -15z"/>
<path d="M7506 7640 c4 -19 11 -36 16 -38 4 -2 8 -10 8 -18 0 -8 4 -14 9 -14
13 0 -7 71 -25 90 -13 13 -14 10 -8 -20z"/>
<path d="M4088 7513 c7 -3 16 -2 19 1 4 3 -2 6 -13 5 -11 0 -14 -3 -6 -6z"/>
<path d="M4598 7469 c-15 -9 11 -16 39 -11 13 2 23 8 23 12 0 9 -47 8 -62 -1z"/>
<path d="M4680 7468 c0 -4 14 -8 30 -8 17 0 30 4 30 9 0 5 -13 9 -30 9 -16 -1
-30 -5 -30 -10z"/>
<path d="M6357 7222 c-21 -23 -21 -32 -3 -32 7 0 16 11 18 25 6 30 6 30 -15 7z"/>
<path d="M5800 7189 c0 -5 4 -8 9 -4 5 3 17 -5 25 -17 11 -16 16 -18 16 -7 0
18 -19 39 -37 39 -7 0 -13 -5 -13 -11z"/>
<path d="M6380 7186 c0 -9 5 -16 10 -16 6 0 10 4 10 9 0 6 -4 13 -10 16 -5 3
-10 -1 -10 -9z"/>
<path d="M5943 7177 c-3 -5 -16 -6 -30 -2 -14 3 -22 2 -19 -3 7 -12 55 -21 61
-12 2 4 16 5 31 2 19 -3 25 -1 22 8 -5 15 -57 20 -65 7z"/>
<path d="M5820 7120 c0 -11 4 -20 9 -20 5 0 7 9 4 20 -3 11 -7 20 -9 20 -2 0
-4 -9 -4 -20z"/>
<path d="M6410 7130 c8 -5 22 -10 30 -10 13 0 13 1 0 10 -8 5 -22 10 -30 10
-13 0 -13 -1 0 -10z"/>
<path d="M6290 7120 c0 -5 7 -10 15 -10 8 0 15 5 15 10 0 6 -7 10 -15 10 -8 0
-15 -4 -15 -10z"/>
<path d="M6400 7110 c0 -5 5 -10 10 -10 6 0 10 5 10 10 0 6 -4 10 -10 10 -5 0
-10 -4 -10 -10z"/>
<path d="M6340 7106 c0 -2 9 -6 20 -9 11 -3 18 -1 14 4 -5 9 -34 13 -34 5z"/>
<path d="M5830 7085 c0 -2 9 -9 20 -15 16 -9 18 -8 14 5 -5 13 -34 22 -34 10z"/>
<path d="M6675 7020 c-3 -5 -1 -10 4 -10 6 0 11 5 11 10 0 6 -2 10 -4 10 -3 0
-8 -4 -11 -10z"/>
<path d="M6882 7015 c-11 -13 -10 -15 5 -15 17 -1 17 -1 0 -14 -20 -16 -13
-46 12 -46 12 0 17 11 19 45 3 47 -10 58 -36 30z"/>
<path d="M3040 7000 c0 -5 5 -10 10 -10 6 0 10 5 10 10 0 6 -4 10 -10 10 -5 0
-10 -4 -10 -10z"/>
<path d="M6731 6994 c0 -11 3 -14 6 -6 3 7 2 16 -1 19 -3 4 -6 -2 -5 -13z"/>
<path d="M6885 6890 c3 -5 10 -10 16 -10 5 0 9 5 9 10 0 6 -7 10 -16 10 -8 0
-12 -4 -9 -10z"/>
<path d="M2781 6794 c0 -11 3 -14 6 -6 3 7 2 16 -1 19 -3 4 -6 -2 -5 -13z"/>
<path d="M3740 6600 c0 -5 5 -10 10 -10 6 0 10 5 10 10 0 6 -4 10 -10 10 -5 0
-10 -4 -10 -10z"/>
<path d="M6038 6593 c6 -2 12 -12 12 -21 0 -13 3 -13 12 -4 10 10 10 15 -2 22
-8 5 -19 9 -25 9 -5 0 -4 -3 3 -6z"/>
<path d="M3448 6578 c9 -9 15 -9 24 0 9 9 7 12 -12 12 -19 0 -21 -3 -12 -12z"/>
<path d="M3574 6574 c-16 -9 -33 -22 -37 -30 -7 -11 -12 -12 -22 -4 -16 13
-105 21 -105 10 0 -5 -9 -6 -20 -3 -14 4 -20 0 -20 -10 0 -19 -38 -57 -57 -57
-8 0 -11 5 -7 11 5 9 -6 10 -39 5 -53 -8 -116 -37 -137 -63 -49 -60 -48 -57
-17 -49 19 4 26 3 22 -4 -4 -7 2 -7 19 0 21 8 26 7 26 -6 0 -13 3 -14 15 -4
17 14 36 5 28 -15 -3 -10 1 -15 11 -15 13 0 15 -6 10 -27 l-5 -28 20 24 c12
13 22 19 22 15 1 -5 2 -16 3 -24 0 -8 10 -15 21 -15 13 0 20 6 19 17 -1 10 3
15 8 12 5 -3 7 -12 4 -19 -3 -9 8 -14 35 -17 21 -2 39 -1 39 3 0 3 12 4 28 2
19 -3 23 -2 14 5 -10 7 -2 11 26 16 22 3 42 12 45 18 3 10 17 10 65 -3 37 -9
58 -11 53 -5 -6 8 6 11 41 13 30 0 54 7 59 14 6 10 11 11 19 3 7 -7 24 -9 43
-5 38 9 97 -2 107 -19 5 -9 21 -11 46 -7 29 5 35 4 24 -4 -11 -7 -3 -9 30 -5
32 4 39 3 25 -3 -11 -5 -14 -10 -7 -10 6 -1 12 -7 12 -15 0 -8 7 -21 15 -30
21 -21 16 -68 -6 -61 -10 3 -20 2 -22 -2 -3 -5 16 -17 41 -27 26 -9 63 -27 82
-38 19 -10 47 -25 63 -31 15 -6 27 -15 27 -19 0 -12 -38 -10 -45 2 -3 6 -21
10 -39 10 -19 0 -39 7 -46 16 -8 8 -25 14 -39 14 -14 -1 -28 -1 -31 0 -16 8
-81 12 -200 13 -134 1 -136 1 -255 -40 -139 -48 -190 -59 -199 -44 -8 12 171
101 244 121 144 39 143 47 0 30 -116 -15 -142 -20 -155 -29 -5 -5 -23 -11 -38
-15 -15 -4 -25 -11 -22 -16 3 -5 -1 -7 -9 -4 -8 3 -25 0 -38 -6 -32 -17 -88
-72 -82 -81 2 -4 0 -10 -6 -14 -6 -4 -1 -17 11 -35 12 -16 19 -35 16 -43 -7
-18 34 -28 77 -20 26 5 28 4 21 -18 -4 -17 -3 -20 3 -10 11 16 47 7 37 -9 -4
-6 7 -13 24 -16 17 -4 36 -13 42 -20 6 -8 20 -14 30 -14 11 0 19 -4 19 -10 0
-18 18 -11 25 10 4 14 15 20 36 20 16 0 29 -4 29 -10 0 -5 -13 -10 -30 -10
-19 0 -30 -5 -30 -14 0 -9 12 -13 39 -12 23 0 35 4 28 8 -9 6 -9 10 1 17 11 6
7 13 -14 30 -14 11 -30 21 -34 21 -15 0 -60 53 -60 71 0 10 10 21 23 24 40 12
77 30 77 37 0 5 7 8 15 8 8 0 19 -16 25 -39 6 -24 28 -58 55 -85 43 -44 46
-46 103 -46 50 0 66 5 101 30 41 30 81 99 81 140 0 27 26 32 73 13 47 -19 119
-61 128 -76 4 -5 12 -6 18 -3 7 4 11 0 11 -11 0 -11 5 -24 12 -31 12 -12 0
-16 -39 -15 -7 1 -13 -3 -13 -7 0 -5 -18 -11 -40 -15 -55 -9 -50 -24 8 -23 26
0 60 -5 76 -11 16 -6 31 -9 34 -6 3 3 0 5 -7 5 -7 0 -9 5 -6 11 5 6 11 5 18
-5 11 -14 17 -14 62 2 55 20 60 35 24 84 -10 15 -19 31 -19 37 0 15 93 19 111
4 8 -7 21 -13 28 -13 7 0 9 -4 6 -10 -12 -20 6 -9 35 20 36 37 36 36 9 43 -15
4 -20 11 -15 22 3 9 2 13 -4 10 -6 -3 -10 1 -10 9 0 9 4 16 10 16 5 0 7 13 4
30 -6 29 10 44 18 18 2 -6 10 -8 16 -4 9 5 9 13 1 27 -6 12 -7 24 -3 27 4 4 9
1 11 -5 8 -22 23 -14 23 12 0 14 -6 25 -12 25 -10 0 -9 3 1 9 14 9 10 35 -11
79 -14 28 -38 29 -38 1 0 -11 -4 -17 -10 -14 -5 3 -10 14 -10 25 0 10 -7 20
-15 24 -8 3 -15 13 -15 22 0 10 -5 14 -15 10 -8 -3 -27 -1 -42 5 -15 6 -41 12
-58 14 -41 4 -73 12 -88 22 -6 4 -23 9 -37 11 -14 1 -30 9 -35 16 -6 8 -29 19
-52 26 -23 7 -46 22 -53 34 -8 17 -18 21 -39 18 -17 -2 -34 3 -44 12 -8 9 -22
16 -31 16 -8 0 -22 7 -30 16 -9 8 -16 13 -16 9 0 -3 -9 -1 -21 5 -13 8 -24 8
-32 2 -8 -7 -25 -6 -49 3 -21 7 -38 9 -38 4 0 -5 5 -9 11 -9 5 0 7 -4 4 -10
-11 -17 -25 -11 -25 11 0 18 -4 20 -27 14 -16 -3 -29 -11 -31 -16 -5 -12 -82
-12 -82 1 0 16 -19 11 -37 -10 -10 -11 -21 -20 -25 -20 -13 0 -9 28 4 32 8 3
8 7 2 11 -6 3 -24 -1 -40 -9z m226 -14 c0 -5 -2 -10 -4 -10 -3 0 -8 5 -11 10
-3 6 -1 10 4 10 6 0 11 -4 11 -10z m-566 -105 c-5 -12 -10 -13 -20 -4 -19 15
-18 19 6 19 13 0 18 -5 14 -15z m43 9 c-3 -3 -12 -4 -19 -1 -8 3 -5 6 6 6 11
1 17 -2 13 -5z m-89 -31 c-16 -2 -28 -8 -28 -13 0 -4 10 -6 22 -2 14 3 19 2
14 -6 -9 -14 -52 -16 -61 -3 -8 13 25 31 55 29 24 -1 24 -1 -2 -5z m72 -33 c0
-5 -5 -10 -11 -10 -5 0 -7 5 -4 10 3 6 8 10 11 10 2 0 4 -4 4 -10z m1307 -182
c-3 -7 -5 -2 -5 12 0 14 2 19 5 13 2 -7 2 -19 0 -25z m-452 -28 c-3 -5 -10
-10 -16 -10 -5 0 -9 5 -9 10 0 6 7 10 16 10 8 0 12 -4 9 -10z m-127 -142 c-6
-18 -28 -21 -28 -4 0 9 7 16 16 16 9 0 14 -5 12 -12z m-130 -10 c-6 -18 -28
-21 -28 -4 0 9 7 16 16 16 9 0 14 -5 12 -12z m-498 -18 c0 -5 -7 -10 -16 -10
-8 0 -12 5 -9 10 3 6 10 10 16 10 5 0 9 -4 9 -10z m1000 -80 c8 -5 11 -12 8
-16 -10 -9 -38 3 -38 16 0 12 10 13 30 0z m-50 -20 c0 -5 -4 -10 -10 -10 -5 0
-10 5 -10 10 0 6 5 10 10 10 6 0 10 -4 10 -10z m-775 -31 c11 -16 1 -19 -13
-3 -7 8 -8 14 -3 14 5 0 13 -5 16 -11z m45 -29 c0 -5 -4 -10 -10 -10 -5 0 -10
5 -10 10 0 6 5 10 10 10 6 0 10 -4 10 -10z"/>
<path d="M3708 6573 c7 -3 16 -2 19 1 4 3 -2 6 -13 5 -11 0 -14 -3 -6 -6z"/>
<path d="M5890 6571 c0 -11 -97 -34 -110 -26 -5 3 -20 1 -35 -5 -17 -7 -24 -7
-20 0 3 6 -4 10 -16 10 -12 0 -19 -3 -16 -7 12 -11 -14 -33 -39 -33 -13 0 -24
-4 -24 -10 0 -5 -13 -10 -29 -10 -17 0 -33 -4 -36 -10 -3 -5 -15 -10 -26 -10
-10 0 -19 -7 -19 -15 0 -14 -45 -21 -102 -17 -10 1 -18 -2 -18 -7 0 -13 -57
-31 -108 -34 -38 -2 -47 -8 -43 -29 0 -5 -8 -8 -18 -8 -25 0 -38 -20 -20 -31
11 -6 9 -12 -9 -29 -12 -11 -22 -25 -22 -30 0 -6 -6 -10 -12 -10 -7 0 -26 -16
-41 -35 -16 -20 -32 -33 -38 -30 -5 4 -9 1 -9 -4 0 -6 11 -11 25 -11 21 0 25
-4 23 -22 -2 -13 -7 -28 -11 -34 -12 -20 59 -25 94 -7 25 12 36 13 50 5 14 -9
25 -8 46 3 15 8 37 15 48 15 11 0 30 3 43 6 21 6 21 7 5 20 -17 12 -16 14 7
15 14 1 30 3 37 3 6 1 20 11 31 23 10 12 38 26 62 32 23 5 46 13 49 18 11 15
52 34 61 28 4 -3 16 2 24 11 9 9 31 18 49 20 17 2 60 8 94 12 34 4 65 11 69
15 4 4 12 0 19 -9 8 -12 29 -16 82 -16 49 0 73 -4 76 -13 3 -7 18 -12 32 -12
15 0 30 -4 34 -9 6 -9 24 -13 74 -16 15 0 32 -7 38 -15 17 -19 57 -16 69 6 5
11 22 21 37 23 16 2 27 8 25 16 -1 6 3 12 9 12 6 0 8 -9 4 -20 -5 -17 -2 -20
20 -20 24 0 25 1 11 16 -12 11 -13 20 -6 34 13 25 13 30 -4 30 -17 0 -28 24
-20 45 4 9 -4 19 -23 27 -15 7 -37 21 -47 30 -11 10 -31 17 -45 17 -24 -2 -24
-2 -3 -6 20 -4 27 -15 23 -37 -1 -5 4 -13 11 -17 7 -4 9 -12 4 -16 -4 -4 -13
-1 -19 8 -7 8 -27 22 -44 30 -38 16 -42 36 -10 50 21 9 20 9 -6 6 -17 -3 -35
3 -49 14 -11 11 -25 19 -29 19 -5 0 -17 10 -28 22 -19 20 -22 20 -39 5 -18
-16 -62 -13 -62 4 0 5 -5 9 -11 9 -7 0 -9 -10 -5 -27 4 -19 4 -23 -3 -14 -5 7
-14 11 -20 7 -7 -5 -9 -1 -4 11 3 10 3 15 -2 11 -4 -4 -25 2 -46 13 -22 11
-39 15 -39 10z m244 -86 c3 -8 3 -15 0 -15 -3 0 -12 7 -20 15 -13 13 -13 15
-1 15 8 0 17 -7 21 -15z m-29 -25 c3 -5 1 -10 -4 -10 -6 0 -11 5 -11 10 0 6 2
10 4 10 3 0 8 -4 11 -10z m262 -76 c-3 -3 -12 -4 -19 -1 -8 3 -5 6 6 6 11 1
17 -2 13 -5z m-260 -60 c-3 -3 -12 -4 -19 -1 -8 3 -5 6 6 6 11 1 17 -2 13 -5z
m-922 -205 c-3 -4 -12 -6 -20 -3 -8 4 -13 10 -10 15 3 4 12 6 20 3 8 -4 13
-10 10 -15z"/>
<path d="M6230 6571 c0 -13 28 -33 41 -29 6 2 0 12 -15 21 -14 10 -26 13 -26
8z"/>
<path d="M3306 6535 c-4 -12 -1 -16 14 -13 24 3 28 22 7 26 -8 2 -17 -4 -21
-13z"/>
<path d="M6225 6510 c3 -5 8 -10 11 -10 2 0 4 5 4 10 0 6 -5 10 -11 10 -5 0
-7 -4 -4 -10z"/>
<path d="M6265 6500 c-3 -5 1 -10 9 -10 9 0 16 5 16 10 0 6 -4 10 -9 10 -6 0
-13 -4 -16 -10z"/>
<path d="M6320 6480 c19 -13 30 -13 30 0 0 6 -10 10 -22 10 -19 0 -20 -2 -8
-10z"/>
<path d="M6340 6449 c0 -5 5 -7 10 -4 6 3 10 8 10 11 0 2 -4 4 -10 4 -5 0 -10
-5 -10 -11z"/>
<path d="M4456 6386 c3 -9 11 -16 16 -16 13 0 5 23 -10 28 -7 2 -10 -2 -6 -12z"/>
<path d="M3208 6323 c7 -3 16 -2 19 1 4 3 -2 6 -13 5 -11 0 -14 -3 -6 -6z"/>
<path d="M3126 6301 c-3 -5 5 -11 19 -13 20 -4 23 -3 14 8 -13 16 -25 18 -33
5z"/>
<path d="M5140 6279 c0 -5 5 -7 10 -4 6 3 10 8 10 11 0 2 -4 4 -10 4 -5 0 -10
-5 -10 -11z"/>
<path d="M3378 6253 c7 -3 16 -2 19 1 4 3 -2 6 -13 5 -11 0 -14 -3 -6 -6z"/>
<path d="M5080 6225 c0 -8 4 -15 10 -15 5 0 7 7 4 15 -4 8 -8 15 -10 15 -2 0
-4 -7 -4 -15z"/>
<path d="M2660 6186 c0 -9 5 -16 10 -16 6 0 10 4 10 9 0 6 -4 13 -10 16 -5 3
-10 -1 -10 -9z"/>
<path d="M3778 6193 c7 -3 16 -2 19 1 4 3 -2 6 -13 5 -11 0 -14 -3 -6 -6z"/>
<path d="M3935 6180 c28 -12 65 -12 65 0 0 6 -19 10 -42 9 -33 0 -38 -2 -23
-9z"/>
<path d="M5675 6143 c-11 -3 -24 -10 -30 -15 -7 -8 -4 -9 8 -4 10 3 27 6 38 6
10 0 19 5 19 10 0 10 -3 11 -35 3z"/>
<path d="M5850 6135 c0 -9 6 -12 15 -9 8 4 12 10 9 15 -8 14 -24 10 -24 -6z"/>
<path d="M5891 6136 c12 -10 59 -15 59 -6 0 5 -14 10 -32 10 -17 0 -29 -2 -27
-4z"/>
<path d="M5520 6114 c-30 -8 -89 -31 -131 -52 -68 -32 -78 -41 -83 -69 -4 -18
-10 -33 -14 -33 -4 0 -15 -23 -25 -51 -18 -49 -18 -51 0 -64 10 -8 20 -9 21
-4 5 11 65 12 78 0 13 -12 112 -22 119 -11 6 10 -6 14 -87 30 -32 6 -60 16
-64 21 -3 5 -10 7 -15 4 -5 -4 -9 1 -9 9 0 10 7 13 24 10 20 -3 23 -1 19 15
-4 15 3 20 34 25 21 4 56 16 78 25 72 32 106 41 110 28 1 -7 9 -33 15 -59 13
-49 69 -118 95 -118 8 0 15 -9 15 -19 0 -11 9 -23 21 -26 29 -10 37 3 8 14
-28 11 -20 13 39 11 26 -1 42 3 42 10 0 6 4 9 9 6 13 -9 71 52 87 91 8 18 14
44 14 58 0 33 25 33 70 0 19 -14 39 -25 46 -25 19 0 24 -42 9 -74 -19 -38 -19
-48 3 -44 9 1 23 -1 30 -5 12 -8 13 -7 16 14 1 14 74 41 87 33 14 -8 102 -14
122 -8 17 5 17 7 2 24 -13 14 -14 23 -6 39 19 35 12 49 -46 88 -114 76 -113
75 -273 119 -48 13 -6 -13 65 -41 39 -15 93 -44 120 -64 28 -20 62 -43 78 -50
26 -14 36 -30 20 -32 -41 -7 -66 -3 -74 13 -6 10 -14 16 -18 14 -13 -8 -88 31
-95 49 -4 11 -13 14 -30 9 -26 -6 -86 22 -86 41 0 5 -4 4 -8 -2 -6 -10 -20
-10 -67 2 -61 16 -252 19 -290 5 -11 -4 -28 -4 -38 -1 -17 6 -17 8 -3 20 8 7
27 14 41 15 13 0 27 7 30 14 6 16 -34 15 -105 -4z m-110 -94 c0 -5 -7 -10 -16
-10 -8 0 -12 5 -9 10 3 6 10 10 16 10 5 0 9 -4 9 -10z m425 -40 c-5 -8 -11 -8
-17 -2 -6 6 -7 16 -3 22 5 8 11 8 17 2 6 -6 7 -16 3 -22z m-125 5 c0 -8 -7
-15 -15 -15 -8 0 -15 7 -15 15 0 8 7 15 15 15 8 0 15 -7 15 -15z"/>
<path d="M5208 6063 l-23 -25 30 8 c17 4 33 11 36 16 3 6 10 9 15 8 5 -1 10 3
12 8 6 20 -48 8 -70 -15z"/>
<path d="M2169 6043 c-32 -20 -70 -101 -68 -146 1 -17 -2 -64 -6 -103 -9 -81
4 -148 41 -222 13 -26 24 -52 24 -58 0 -6 9 -23 21 -38 11 -15 25 -39 30 -54
7 -20 7 -12 3 28 -6 64 -35 193 -44 200 -11 8 -18 60 -9 66 4 2 5 11 2 20 -5
15 19 73 45 106 9 11 10 18 3 23 -6 3 -11 13 -11 22 0 9 3 13 7 10 3 -4 11 3
18 16 6 12 19 21 28 19 11 -2 17 4 18 18 3 39 5 45 18 42 17 -3 3 39 -18 55
-23 17 -71 15 -102 -4z"/>
<path d="M2692 6035 c0 -16 2 -22 5 -12 2 9 2 23 0 30 -3 6 -5 -1 -5 -18z"/>
<path d="M2691 5971 c-10 -7 -11 -13 -2 -27 6 -11 11 -17 12 -14 1 8 6 50 5
50 -1 0 -7 -4 -15 -9z"/>
<path d="M7195 5973 c-56 -14 -58 -45 -5 -97 22 -22 40 -45 40 -53 0 -7 4 -13
8 -13 10 0 30 -94 28 -132 0 -16 -5 -28 -9 -28 -4 0 -3 -8 2 -18 6 -12 3 -36
-9 -77 -10 -33 -33 -125 -50 -205 -18 -80 -36 -158 -40 -175 -5 -16 -16 -57
-26 -90 -25 -91 -77 -173 -117 -188 -7 -2 -10 -7 -6 -10 7 -8 89 32 89 44 0 5
20 40 45 79 25 39 54 99 66 133 11 34 24 71 28 82 19 45 50 153 56 190 4 22
13 54 20 70 43 99 50 131 49 236 -2 93 -5 114 -29 168 -38 84 -67 102 -140 84z"/>
<path d="M2261 5824 c0 -11 3 -14 6 -6 3 7 2 16 -1 19 -3 4 -6 -2 -5 -13z"/>
<path d="M3985 5830 c-3 -5 -1 -10 4 -10 6 0 11 5 11 10 0 6 -2 10 -4 10 -3 0
-8 -4 -11 -10z"/>
<path d="M4020 5830 c0 -5 4 -10 9 -10 6 0 13 5 16 10 3 6 -1 10 -9 10 -9 0
-16 -4 -16 -10z"/>
<path d="M3795 5816 c32 -14 41 -13 30 3 -3 6 -18 11 -33 11 l-27 -1 30 -13z"/>
<path d="M5510 5820 c0 -6 7 -10 15 -10 8 0 15 2 15 4 0 2 -7 6 -15 10 -8 3
-15 1 -15 -4z"/>
<path d="M5577 5799 c7 -7 15 -10 18 -7 3 3 -2 9 -12 12 -14 6 -15 5 -6 -5z"/>
<path d="M5660 5790 c0 -5 5 -10 10 -10 6 0 10 5 10 10 0 6 -4 10 -10 10 -5 0
-10 -4 -10 -10z"/>
<path d="M5721 5714 c0 -11 3 -14 6 -6 3 7 2 16 -1 19 -3 4 -6 -2 -5 -13z"/>
<path d="M2536 5576 c-20 -37 -16 -66 8 -66 7 0 16 -10 19 -22 5 -18 8 -19 21
-8 13 10 19 10 31 0 12 -10 18 -6 35 22 24 39 25 58 5 84 -14 18 -16 18 -29 2
-16 -22 -26 -23 -26 -4 0 12 -20 26 -39 26 -3 0 -15 -16 -25 -34z"/>
<path d="M6790 5495 c-20 -53 12 -265 40 -265 13 0 20 28 7 33 -9 3 -9 10 1
26 10 18 11 26 1 37 -9 11 -8 18 5 32 9 10 16 27 16 38 0 16 -2 17 -11 4 -12
-16 -9 -6 15 53 14 36 -2 62 -39 62 -19 1 -30 -6 -35 -20z"/>
<path d="M2521 5386 c-14 -17 -1 -28 19 -16 11 7 12 12 4 20 -8 8 -14 7 -23
-4z"/>
<path d="M2251 5348 c-1 -21 4 -38 9 -38 12 0 12 27 0 55 -7 16 -9 13 -9 -17z"/>
<path d="M2281 5284 c0 -11 3 -14 6 -6 3 7 2 16 -1 19 -3 4 -6 -2 -5 -13z"/>
<path d="M2730 5240 c0 -5 5 -10 10 -10 6 0 10 5 10 10 0 6 -4 10 -10 10 -5 0
-10 -4 -10 -10z"/>
<path d="M2400 5198 c0 -26 22 -58 41 -58 12 0 23 46 14 60 -5 8 -10 9 -18 1
-7 -7 -14 -5 -23 7 -12 15 -13 14 -14 -10z"/>
<path d="M2285 5180 c-3 -5 -1 -10 4 -10 6 0 11 5 11 10 0 6 -2 10 -4 10 -3 0
-8 -4 -11 -10z"/>
<path d="M2465 5130 c4 -6 11 -8 16 -5 14 9 11 15 -7 15 -8 0 -12 -5 -9 -10z"/>
<path d="M2595 5102 c-25 -25 23 -77 81 -88 46 -8 51 -1 26 37 -14 22 -34 37
-61 45 -22 6 -43 9 -46 6z"/>
<path d="M2360 5025 c0 -8 7 -15 16 -15 14 0 14 3 4 15 -7 8 -14 15 -16 15 -2
0 -4 -7 -4 -15z"/>
<path d="M6921 5021 c-1 -19 -5 -22 -23 -18 -22 6 -22 6 2 -13 22 -17 27 -17
40 -4 10 10 12 17 4 22 -6 4 -14 14 -17 22 -3 10 -6 7 -6 -9z"/>
<path d="M4516 5009 c-49 -12 -91 -42 -110 -80 -12 -25 -13 -31 -1 -35 16 -7
55 13 55 27 0 13 43 8 111 -11 41 -12 52 -11 92 4 27 10 49 26 52 37 7 22 -10
49 -31 49 -8 0 -14 5 -14 10 0 12 -100 11 -154 -1z"/>
<path d="M6760 4975 c-30 -11 -35 -17 -38 -49 l-3 -37 33 17 c46 23 68 44 68
66 0 20 -10 21 -60 3z"/>
<path d="M5040 4962 c-36 -20 -60 -66 -42 -84 16 -16 100 -17 113 -2 6 8 21
14 33 14 11 0 34 7 50 15 38 20 46 19 46 -5 0 -18 3 -19 21 -10 18 10 19 14 6
33 -17 26 -97 56 -152 57 -22 0 -56 -8 -75 -18z"/>
<path d="M6947 4893 c-5 -25 20 -73 38 -73 25 0 23 58 -3 78 -22 16 -30 15
-35 -5z"/>
<path d="M2761 4874 c0 -11 3 -14 6 -6 3 7 2 16 -1 19 -3 4 -6 -2 -5 -13z"/>
<path d="M2797 4883 c-3 -4 -4 -19 -2 -33 1 -14 3 -33 4 -43 0 -10 5 -16 11
-12 5 3 7 24 5 46 -4 43 -10 56 -18 42z"/>
<path d="M4806 4858 c-3 -17 -1 -37 4 -43 13 -15 77 -17 103 -4 24 14 21 39
-5 40 -22 1 -22 1 2 9 22 7 21 8 -12 9 -20 1 -48 5 -61 10 -22 9 -25 7 -31
-21z"/>
<path d="M2800 4735 c0 -3 6 -14 13 -26 10 -17 9 -22 -7 -35 -19 -13 -19 -14
8 -14 22 0 27 4 22 16 -3 9 -9 27 -12 40 -5 20 -24 35 -24 19z"/>
<path d="M4546 4724 c-30 -11 -41 -12 -47 -3 -4 7 -14 9 -25 4 -11 -4 -31 -7
-46 -6 -17 2 -28 -2 -28 -10 0 -7 -7 -21 -17 -31 -15 -17 -15 -18 10 -18 34 0
34 -5 -3 -42 -27 -27 -30 -28 -30 -9 0 12 -6 21 -15 21 -8 0 -15 -6 -15 -12 1
-18 25 -48 39 -48 7 0 9 -4 6 -10 -3 -5 -20 -10 -36 -10 -23 0 -29 4 -27 18 2
10 -3 17 -14 17 -9 0 -20 4 -24 8 -4 4 0 7 9 7 10 0 17 8 17 17 0 13 -3 14
-12 5 -7 -7 -18 -12 -25 -12 -8 0 -24 -10 -36 -21 -12 -12 -40 -34 -61 -50
-21 -16 -35 -29 -29 -29 5 0 18 -6 28 -14 18 -13 17 -14 -10 -8 -27 5 -29 4
-16 -11 7 -10 10 -17 7 -17 -11 0 -31 23 -32 38 -1 6 -2 17 -2 22 -3 19 -59
10 -106 -16 l-46 -26 10 27 10 27 -34 -21 c-18 -12 -41 -21 -50 -21 -9 0 -16
-4 -16 -10 0 -5 -7 -10 -15 -10 -8 0 -15 -5 -15 -11 0 -6 -6 -9 -14 -6 -8 3
-17 -1 -20 -9 -8 -22 -8 -22 17 -27 l22 -4 -22 -2 c-25 -1 -31 -16 -10 -25 6
-3 1 -3 -13 0 -23 5 -24 4 -7 -9 21 -17 22 -33 3 -40 -9 -4 -15 -21 -16 -44
-5 -150 -4 -187 7 -190 7 -3 15 7 19 21 10 41 33 33 29 -10 -2 -23 1 -34 8
-31 7 2 11 18 11 36 -1 17 2 31 7 31 5 0 9 -4 9 -9 0 -5 14 -11 32 -13 24 -4
37 0 53 18 34 37 93 32 173 -11 69 -39 80 -37 105 13 16 33 42 43 32 13 -9
-28 2 -27 30 3 23 24 23 25 89 11 65 -14 163 -17 636 -19 143 -1 199 -4 208
-13 8 -7 18 -10 23 -7 6 3 20 -2 31 -13 20 -18 21 -18 14 5 -5 13 -3 22 3 22
6 0 11 -5 11 -10 0 -6 6 -10 13 -9 44 6 56 -2 67 -41 6 -22 13 -40 17 -40 3 0
3 9 0 20 -3 11 -1 20 4 20 5 0 9 -7 9 -15 0 -10 9 -6 28 11 24 23 34 25 81 22
41 -4 58 -10 71 -28 12 -16 19 -19 25 -11 5 9 12 8 25 -4 11 -10 24 -14 31 -9
8 4 10 3 5 -5 -4 -7 5 -18 23 -29 17 -9 31 -23 31 -29 0 -25 16 -12 30 22 14
36 14 36 28 13 13 -23 13 -23 8 3 -4 17 0 31 9 39 19 16 19 25 -2 46 -16 16
-16 16 5 10 19 -6 22 -4 22 18 0 14 -4 26 -9 26 -5 0 -17 14 -25 32 -15 28
-15 33 -2 40 13 7 12 14 -6 46 -11 20 -38 52 -59 70 -22 19 -39 43 -39 54 0
14 -5 18 -15 14 -9 -3 -15 0 -15 9 0 8 -4 15 -9 15 -5 0 -7 -10 -4 -21 5 -19
3 -20 -18 -14 -13 4 -28 13 -34 19 -22 27 -53 37 -75 24 -17 -11 -22 -10 -35
8 -14 21 -59 37 -70 26 -3 -3 0 -11 7 -19 6 -7 9 -16 6 -18 -8 -8 -38 6 -38
17 0 5 -11 21 -25 36 -21 22 -27 25 -35 12 -7 -12 -10 -12 -16 4 -7 18 -8 18
-21 0 -12 -16 -13 -16 -13 -1 0 26 -20 20 -21 -5 -1 -18 -2 -19 -6 -5 -2 9 -8
15 -12 13 -4 -3 -13 -1 -21 5 -12 7 -9 9 9 9 24 0 24 0 5 21 -18 20 -18 22 -1
34 22 16 22 26 0 18 -16 -6 -16 -5 -5 10 10 12 11 21 3 34 -6 10 -11 12 -11 6
0 -22 -36 -14 -56 12 -10 14 -23 25 -27 25 -5 0 -6 -11 -3 -25 9 -34 0 -31
-19 6 -11 19 -22 29 -31 25 -8 -3 -14 -1 -14 5 0 6 -10 9 -22 7 -15 -2 -26
-13 -32 -33 -19 -64 -18 -62 -24 -45 -8 23 -35 40 -48 29 -6 -5 -15 -4 -21 2
-13 13 -63 -31 -63 -56 0 -12 -6 -16 -19 -12 -15 3 -20 -2 -25 -24 -7 -39 -36
-39 -36 0 0 16 -8 35 -17 42 -14 12 -16 12 -11 -2 4 -10 1 -16 -8 -16 -17 0
-19 49 -3 78 10 19 9 19 -10 9 -12 -6 -21 -16 -21 -23 0 -18 -68 -49 -91 -42
-12 4 -19 2 -19 -7 0 -10 -2 -10 -9 1 -6 10 -13 11 -29 2 -27 -14 -32 -14 -32
3 0 8 14 27 30 43 30 28 41 74 18 72 -7 -1 -31 -8 -52 -15z m-82 -103 c3 -5
-1 -11 -9 -14 -9 -4 -12 -1 -8 9 6 16 10 17 17 5z m106 -51 c0 -5 -8 -10 -17
-10 -15 0 -16 2 -3 10 19 12 20 12 20 0z m-320 -10 c0 -5 -4 -10 -9 -10 -6 0
-13 5 -16 10 -3 6 1 10 9 10 9 0 16 -4 16 -10z m877 -6 c2 -5 -3 -18 -10 -28
-13 -17 -14 -16 -15 13 -1 30 17 40 25 15z m-482 -60 c16 22 31 20 49 -5 8
-12 19 -18 26 -14 6 4 18 1 26 -6 8 -6 17 -9 20 -6 4 3 13 -1 22 -9 18 -18 91
-12 104 9 6 9 8 9 8 0 0 -7 5 -13 10 -13 6 0 10 12 10 27 0 21 3 24 12 15 7
-7 28 -12 48 -12 20 0 41 -5 48 -12 9 -9 16 -8 30 6 18 16 20 15 36 -8 9 -14
16 -30 16 -36 0 -5 12 -10 28 -10 15 -1 38 -7 52 -14 16 -9 32 -11 47 -5 19 7
23 5 23 -10 0 -14 5 -18 21 -14 14 4 19 12 16 24 -3 11 -1 17 3 14 5 -3 10 0
12 6 2 6 16 -7 31 -30 25 -38 29 -40 50 -29 19 11 20 13 4 16 -9 2 -15 8 -12
13 8 13 57 -1 72 -20 20 -26 15 -39 -13 -33 -19 3 -25 1 -20 -7 4 -6 16 -11
28 -11 16 0 18 -3 9 -14 -14 -17 -8 -22 41 -31 41 -8 55 -21 55 -47 0 -12 -8
-18 -22 -18 -11 0 -26 -5 -33 -12 -9 -9 -12 -9 -12 1 0 7 -4 10 -8 7 -11 -7
-153 43 -174 61 -9 8 -28 16 -42 17 -14 0 -28 7 -31 14 -3 7 -10 10 -16 7 -5
-4 -16 1 -24 11 -7 11 -17 16 -21 12 -4 -4 -1 -15 6 -23 10 -12 10 -19 2 -27
-8 -8 -14 -4 -22 16 -12 32 -34 25 -27 -10 4 -20 1 -22 -23 -17 -19 3 -34 -1
-46 -14 -19 -18 -20 -18 -41 5 -17 19 -23 21 -34 10 -7 -8 -27 -12 -51 -10
-58 6 -88 -4 -88 -31 -1 -16 -5 -11 -15 16 -15 44 -26 57 -32 40 -7 -19 -21
-16 -28 7 -8 26 -23 25 -35 -2 -5 -13 -9 -17 -9 -10 -1 19 -21 14 -22 -5 0
-15 -2 -15 -9 2 -5 11 -9 17 -9 12 -1 -4 -17 0 -37 8 -20 8 -40 12 -45 9 -21
-12 -58 -13 -71 -2 -21 21 -66 25 -127 12 -23 -5 -36 -2 -43 7 -7 11 -11 11
-15 2 -2 -7 -18 -13 -34 -13 -16 0 -29 -4 -29 -10 0 -5 -6 -7 -13 -4 -8 3 -20
-2 -27 -11 -15 -19 -100 -21 -119 -2 -11 9 -12 9 -7 0 5 -8 2 -11 -7 -7 -19 7
-11 41 17 73 18 21 19 23 3 18 -11 -4 -16 -3 -12 3 3 6 25 10 48 10 31 0 45 5
55 20 7 11 18 20 26 20 8 0 31 16 52 35 50 45 74 46 74 4 0 -26 3 -29 14 -20
11 9 15 9 19 -1 4 -10 8 -10 16 2 9 13 11 13 11 1 0 -11 3 -10 13 3 12 17 18
17 52 6 29 -10 40 -10 43 -1 2 6 10 11 18 11 8 0 19 12 24 26 9 24 11 24 27 9
15 -16 18 -16 28 -1z m605 -4 c0 -5 -4 -10 -9 -10 -6 0 -13 5 -16 10 -3 6 1
10 9 10 9 0 16 -4 16 -10z m-1184 -55 c-8 -8 -18 -15 -22 -15 -3 0 -1 7 6 15
7 8 17 15 22 15 5 0 3 -7 -6 -15z m1548 -41 c9 -24 7 -28 -9 -14 -17 14 -20
30 -6 30 5 0 12 -7 15 -16z m-1674 -48 c0 -2 -7 -7 -16 -10 -8 -3 -12 -2 -9 4
6 10 25 14 25 6z m533 -60 c17 -13 16 -14 -3 -19 -13 -3 -20 0 -20 8 0 7 -6
16 -12 18 -9 4 -8 6 2 6 8 0 23 -6 33 -13z m161 -16 c-7 -7 -19 -7 -35 -1 -23
9 -22 10 11 10 23 1 31 -2 24 -9z m596 -21 c0 -6 -4 -7 -10 -4 -5 3 -10 11
-10 16 0 6 5 7 10 4 6 -3 10 -11 10 -16z m-335 -19 c-3 -5 -12 -7 -20 -3 -21
7 -19 13 6 13 11 0 18 -4 14 -10z m911 -155 c-14 -14 -16 -14 -16 -2 0 9 6 17
13 20 19 7 21 -1 3 -18z m-36 -45 c0 -11 -4 -20 -10 -20 -5 0 -10 9 -10 20 0
11 5 20 10 20 6 0 10 -9 10 -20z"/>
<path d="M5307 4381 c-2 -11 3 -25 14 -35 26 -22 33 -20 15 5 -8 12 -12 28 -9
35 3 8 1 14 -5 14 -5 0 -12 -8 -15 -19z"/>
<path d="M4166 4355 c4 -8 8 -15 10 -15 2 0 4 7 4 15 0 8 -4 15 -10 15 -5 0
-7 -7 -4 -15z"/>
<path d="M5105 4301 c-3 -5 -1 -12 5 -16 5 -3 10 1 10 9 0 18 -6 21 -15 7z"/>
<path d="M5045 4291 c-3 -5 -1 -12 4 -15 5 -3 11 1 15 9 6 16 -9 21 -19 6z"/>
<path d="M5210 4680 c0 -5 5 -10 10 -10 6 0 10 5 10 10 0 6 -4 10 -10 10 -5 0
-10 -4 -10 -10z"/>
<path d="M4610 4649 c0 -11 4 -18 10 -14 5 3 7 12 3 20 -7 21 -13 19 -13 -6z"/>
<path d="M6646 4634 c-4 -9 -4 -19 -1 -22 2 -3 7 3 11 12 4 9 4 19 1 22 -2 3
-7 -3 -11 -12z"/>
<path d="M5321 4595 c1 -19 18 -51 18 -35 0 8 -4 22 -9 30 -5 8 -9 11 -9 5z"/>
<path d="M5295 4560 c3 -5 8 -10 11 -10 2 0 4 5 4 10 0 6 -5 10 -11 10 -5 0
-7 -4 -4 -10z"/>
<path d="M6627 4564 c-14 -15 15 -42 57 -53 58 -14 61 -14 46 4 -7 8 -19 15
-27 15 -7 0 -16 7 -20 16 -3 8 -12 13 -19 10 -8 -3 -14 -1 -14 4 0 11 -13 13
-23 4z"/>
<path d="M3871 4514 c0 -11 3 -14 6 -6 3 7 2 16 -1 19 -3 4 -6 -2 -5 -13z"/>
<path d="M5400 4521 c0 -5 5 -13 10 -16 6 -3 10 -2 10 4 0 5 -4 13 -10 16 -5
3 -10 2 -10 -4z"/>
<path d="M6758 4503 c7 -3 16 -2 19 1 4 3 -2 6 -13 5 -11 0 -14 -3 -6 -6z"/>
<path d="M3075 4480 c-3 -5 -1 -10 4 -10 6 0 11 5 11 10 0 6 -2 10 -4 10 -3 0
-8 -4 -11 -10z"/>
<path d="M2976 4452 c7 -4 14 -16 16 -27 3 -17 5 -16 9 6 4 20 1 25 -15 27
-12 0 -16 -2 -10 -6z"/>
<path d="M3120 4410 c0 -5 5 -10 10 -10 6 0 10 5 10 10 0 6 -4 10 -10 10 -5 0
-10 -4 -10 -10z"/>
<path d="M2971 4384 c0 -11 3 -14 6 -6 3 7 2 16 -1 19 -3 4 -6 -2 -5 -13z"/>
<path d="M3043 4365 c-3 -9 -3 -19 1 -22 3 -4 6 1 6 10 0 8 6 18 13 20 9 4 9
6 -1 6 -7 1 -15 -6 -19 -14z"/>
<path d="M3250 4259 c0 -5 5 -7 10 -4 6 3 10 8 10 11 0 2 -4 4 -10 4 -5 0 -10
-5 -10 -11z"/>
<path d="M3208 4233 c-22 -5 -24 -23 -3 -23 8 0 15 4 15 9 0 5 8 12 18 14 11
3 12 5 2 5 -8 0 -23 -2 -32 -5z"/>
<path d="M6385 4210 c-3 -5 -1 -10 4 -10 6 0 11 5 11 10 0 6 -2 10 -4 10 -3 0
-8 -4 -11 -10z"/>
<path d="M6222 4170 c6 -23 13 -39 16 -36 7 8 -8 76 -17 76 -5 0 -4 -18 1 -40z"/>
<path d="M3101 4144 c0 -11 3 -14 6 -6 3 7 2 16 -1 19 -3 4 -6 -2 -5 -13z"/>
<path d="M3125 4129 c-4 -6 -5 -12 -2 -15 2 -3 7 2 10 11 7 17 1 20 -8 4z"/>
<path d="M5170 4130 c0 -5 5 -10 10 -10 6 0 10 5 10 10 0 6 -4 10 -10 10 -5 0
-10 -4 -10 -10z"/>
<path d="M3308 4123 c-10 -3 -18 -10 -18 -18 0 -7 -7 -15 -15 -19 -17 -6 -21
-61 -5 -71 6 -3 10 -16 10 -28 0 -17 2 -19 9 -8 5 8 19 15 32 16 23 2 41 25
19 25 -10 0 -10 4 0 15 10 12 10 15 -3 15 -9 0 -17 -8 -20 -17 -2 -10 -3 1 -2
25 0 24 7 47 14 51 16 10 2 19 -21 14z m-18 -85 c0 -16 -3 -19 -11 -11 -6 6
-8 16 -5 22 11 17 16 13 16 -11z"/>
<path d="M3180 4101 c-13 -25 -13 -29 3 -34 16 -5 -43 3 -66 10 -16 4 -18 1
-12 -16 4 -12 2 -21 -4 -21 -6 0 -11 -12 -11 -26 0 -14 4 -23 10 -19 6 4 8 11
5 16 -4 5 1 12 10 15 9 4 14 13 11 20 -4 10 0 11 19 2 27 -12 35 -31 10 -22
-8 4 -15 1 -15 -5 0 -14 11 -14 47 0 26 10 27 12 8 19 -20 8 -20 9 1 9 17 1
21 7 19 26 -2 15 3 29 13 35 14 8 12 9 -10 10 -17 0 -31 -7 -38 -19z"/>
<path d="M3905 4110 c-3 -5 -1 -10 4 -10 6 0 11 5 11 10 0 6 -2 10 -4 10 -3 0
-8 -4 -11 -10z"/>
<path d="M6111 4034 c0 -11 3 -14 6 -6 3 7 2 16 -1 19 -3 4 -6 -2 -5 -13z"/>
<path d="M5670 4029 c0 -5 5 -7 10 -4 6 3 10 8 10 11 0 2 -4 4 -10 4 -5 0 -10
-5 -10 -11z"/>
<path d="M6070 4026 c0 -9 5 -16 10 -16 6 0 10 4 10 9 0 6 -4 13 -10 16 -5 3
-10 -1 -10 -9z"/>
<path d="M3195 4000 c-3 -5 -1 -10 4 -10 6 0 11 5 11 10 0 6 -2 10 -4 10 -3 0
-8 -4 -11 -10z"/>
<path d="M6091 3984 c0 -11 3 -14 6 -6 3 7 2 16 -1 19 -3 4 -6 -2 -5 -13z"/>
<path d="M6336 3985 c-3 -8 -1 -15 4 -15 6 0 10 7 10 15 0 8 -2 15 -4 15 -2 0
-6 -7 -10 -15z"/>
<path d="M3440 3965 c0 -8 -8 -15 -17 -16 -13 0 -11 -3 7 -10 24 -10 24 -11 5
-21 -11 -6 -23 -16 -27 -22 -5 -7 -8 -5 -8 5 0 9 -7 30 -15 45 l-15 29 0 -25
c0 -36 28 -73 51 -67 10 3 26 -1 36 -9 11 -8 13 -13 6 -14 -7 0 -13 -6 -13
-14 0 -8 -8 -13 -17 -12 -19 1 -25 -25 -8 -36 6 -5 3 -8 -7 -8 -10 0 -18 5
-18 10 0 17 -18 11 -23 -7 -4 -17 -5 -17 -6 0 0 9 -5 17 -11 17 -5 0 -7 -6 -4
-14 9 -24 -17 -29 -37 -7 -11 12 -16 21 -12 21 4 0 1 5 -7 10 -12 8 -10 10 10
10 30 1 53 17 64 45 7 19 6 19 -16 -1 -25 -22 -58 -21 -58 2 0 19 -6 18 -31
-7 -13 -13 -27 -18 -40 -14 -13 4 -19 2 -19 -9 0 -9 9 -16 20 -16 11 0 20 5
20 10 0 6 5 10 11 10 8 0 8 -4 1 -13 -7 -8 -6 -18 4 -31 26 -36 13 -39 -36 -8
-2 2 2 7 10 12 8 6 11 10 5 10 -18 0 -33 -15 -37 -35 -2 -15 3 -21 20 -23 15
-2 22 -9 19 -17 -3 -7 1 -22 9 -34 8 -11 11 -21 5 -21 -5 0 -12 9 -16 19 -6
21 -35 37 -35 20 0 -7 -11 -4 -25 5 -27 18 -65 13 -65 -7 0 -7 7 -21 15 -31 8
-11 15 -27 15 -37 0 -9 7 -20 16 -23 8 -3 12 -11 8 -17 -4 -7 1 -18 12 -26 17
-13 18 -15 3 -26 -15 -11 -7 -19 57 -61 40 -27 71 -53 68 -57 -5 -8 36 -35 48
-31 4 1 25 -15 46 -36 22 -21 53 -44 70 -51 17 -7 37 -20 43 -28 10 -11 8 -15
-9 -20 -12 -3 -22 -9 -22 -14 0 -12 14 -11 27 2 6 6 17 8 23 4 9 -6 9 -10 -1
-17 -10 -7 -8 -8 8 -5 16 4 20 1 16 -11 -4 -9 -2 -13 4 -9 6 4 16 0 23 -8 7
-8 18 -15 24 -15 6 0 22 -10 36 -21 14 -12 18 -19 8 -16 -11 4 -15 1 -13 -11
2 -9 4 -21 4 -25 1 -5 6 -5 12 -2 18 12 57 -4 55 -22 0 -10 6 -19 14 -19 8 -1
20 -2 25 -3 6 0 19 -21 30 -45 11 -24 24 -42 30 -38 5 3 4 -1 -3 -10 -11 -14
-9 -17 17 -23 20 -4 28 -11 24 -21 -3 -8 0 -14 6 -14 7 0 22 -10 34 -23 12
-13 45 -32 72 -43 41 -17 51 -25 53 -47 2 -15 8 -25 13 -22 16 10 157 -26 163
-41 3 -8 17 -19 31 -24 14 -5 25 -16 25 -24 0 -7 7 -19 15 -26 12 -10 18 -10
30 0 13 10 15 9 15 -12 0 -24 2 -25 50 -20 35 3 50 1 50 -7 0 -16 27 -43 32
-32 5 14 48 24 48 11 0 -19 27 -40 52 -40 13 0 29 -5 35 -11 6 -6 26 -13 44
-15 19 -3 40 -13 47 -22 6 -9 12 -11 12 -5 0 5 11 8 24 6 13 -3 27 0 30 6 5 8
13 8 26 1 13 -7 21 -7 25 0 3 5 14 10 24 10 10 0 26 9 36 20 10 11 28 19 39
19 39 -4 56 1 56 15 0 10 11 12 43 9 39 -4 43 -2 65 31 12 20 30 36 40 36 9 0
30 7 45 15 15 8 25 10 22 5 -4 -6 0 -13 9 -16 8 -3 18 -24 22 -47 5 -34 8 -38
15 -22 4 11 8 36 8 55 1 25 4 31 10 21 7 -11 11 -5 16 22 9 45 20 54 35 27 14
-26 30 -17 30 16 0 28 19 28 38 -1 10 -15 12 -16 8 -3 -3 10 -1 20 4 23 5 3
10 -3 12 -12 2 -10 8 3 12 30 8 54 26 63 26 15 l1 -33 17 28 c9 15 23 27 32
27 10 0 11 3 4 8 -6 4 -8 16 -4 27 6 16 8 13 15 -15 8 -35 8 -35 12 -7 3 15 9
25 14 22 5 -4 9 -1 9 6 0 8 4 8 15 -1 21 -17 29 -6 28 37 -1 25 2 32 8 22 7
-12 9 -12 9 1 0 13 1 13 10 0 9 -13 10 -13 10 0 0 11 2 12 8 3 10 -16 28 -4
36 25 4 13 12 19 18 16 7 -5 9 -1 5 9 -7 19 1 49 12 43 9 -6 92 60 85 67 -3 3
4 8 15 12 12 3 21 10 21 14 0 4 16 13 35 20 19 7 35 19 35 27 0 8 6 14 13 14
16 0 47 36 47 55 0 9 6 12 15 9 8 -4 15 -2 15 4 0 5 10 12 23 16 18 5 20 8 7
16 -12 8 -9 10 13 10 28 0 37 14 15 23 -7 3 2 3 20 0 32 -5 33 -5 26 21 -4 17
-2 26 6 26 6 0 25 9 41 21 l29 20 1 -23 c1 -17 3 -18 6 -5 2 9 12 17 21 18 11
0 12 2 5 6 -7 2 -13 12 -13 21 0 13 -2 14 -9 3 -5 -8 -11 -9 -15 -3 -3 5 7 15
22 21 32 14 37 43 8 61 -16 10 -18 10 -14 -8 3 -11 2 -26 -3 -33 -6 -10 -9 -3
-9 21 0 19 -10 53 -21 75 -15 30 -19 33 -15 13 3 -14 9 -34 13 -43 4 -13 2
-16 -8 -13 -10 4 -14 23 -14 72 0 37 3 70 8 73 13 8 7 22 -8 17 -10 -4 -15 0
-15 12 0 16 -2 17 -11 4 -9 -12 -10 -11 -6 7 3 15 -7 39 -34 74 -22 30 -39 45
-39 36 0 -11 -8 -17 -22 -18 -13 0 -17 -3 -10 -6 16 -6 15 -30 -2 -36 -12 -5
-10 -13 7 -48 15 -30 18 -46 10 -58 -7 -12 -6 -19 6 -28 14 -11 13 -12 -9 -13
-38 0 -53 14 -45 40 5 16 10 19 18 11 15 -15 27 -14 27 4 0 8 -10 20 -22 26
-13 7 -29 19 -36 28 -10 13 -10 11 -2 -12 13 -37 13 -60 0 -52 -7 4 -9 -3 -5
-22 5 -26 5 -27 -6 -5 -12 23 -29 30 -29 12 0 -5 5 -10 10 -10 6 0 10 -9 10
-20 0 -25 -20 -27 -20 -2 -1 15 -2 15 -15 -2 -13 -17 -15 -18 -15 -3 0 9 -5
17 -11 17 -7 0 -10 -12 -7 -30 5 -31 -6 -41 -16 -15 -8 21 -24 19 -31 -5 -3
-11 -11 -20 -17 -20 -5 0 -8 7 -5 15 4 8 2 17 -3 20 -4 3 -11 -1 -13 -7 -3 -7
-6 -2 -7 12 -2 24 -2 24 -11 -5 -5 -16 -7 -36 -4 -43 3 -8 -3 -16 -15 -19 -14
-4 -20 -14 -20 -32 0 -14 -6 -38 -14 -53 -11 -20 -11 -28 -3 -32 7 -2 2 -5
-10 -5 -16 -1 -21 -6 -17 -16 4 -9 0 -15 -10 -15 -12 0 -14 -7 -10 -32 4 -25
3 -29 -5 -18 -9 13 -11 13 -11 -3 0 -14 -5 -16 -27 -11 -25 7 -27 6 -14 -10
16 -19 6 -35 -11 -18 -7 7 -22 12 -34 12 -13 0 -26 5 -29 10 -4 6 -11 7 -17 4
-5 -3 0 -11 12 -18 13 -6 23 -15 22 -21 0 -5 4 -16 10 -22 7 -9 0 -14 -31 -19
-23 -4 -41 -12 -41 -19 0 -8 -14 -11 -44 -9 -42 4 -43 3 -38 -24 5 -31 -13
-20 -21 13 -3 14 -5 11 -6 -10 l-2 -30 -14 27 c-12 21 -21 26 -40 22 -20 -3
-28 1 -35 18 -5 13 -9 18 -9 11 -1 -7 -8 -10 -17 -6 -13 5 -15 2 -9 -18 10
-32 15 -36 24 -20 6 10 10 9 14 -4 4 -9 3 -13 -2 -10 -5 3 -13 -5 -17 -17 l-6
-21 -14 24 c-7 13 -13 32 -14 42 0 18 -20 25 -20 6 0 -5 -4 -8 -9 -4 -5 3 -12
1 -16 -5 -4 -7 -12 -7 -25 0 -26 14 -80 13 -81 -2 0 -7 -4 -4 -9 7 -7 16 -9
14 -9 -15 -1 -35 -1 -35 -14 -10 -7 14 -20 24 -29 22 -9 -1 -19 2 -22 7 -10
15 -60 -4 -72 -28 -10 -19 -12 -20 -18 -6 -11 30 -6 45 15 45 11 0 17 5 14 10
-4 6 -10 8 -15 5 -5 -3 -11 3 -13 12 -4 14 -5 13 -6 -4 -1 -18 -7 -23 -26 -23
-19 0 -25 5 -26 23 -1 21 -1 21 -8 -3 -5 -18 -13 -24 -28 -22 -17 2 -20 -1
-16 -16 4 -16 -1 -19 -32 -20 -20 -1 -33 2 -31 7 3 5 -6 11 -19 14 -28 5 -45
-11 -25 -23 8 -5 8 -10 2 -14 -5 -3 -12 1 -16 9 -3 8 -13 15 -21 15 -9 0 -13
-5 -9 -11 4 -8 0 -8 -15 0 -17 10 -21 9 -21 -4 0 -9 -7 -23 -15 -31 -13 -14
-15 -12 -15 11 0 22 -4 26 -20 22 -11 -3 -18 -1 -14 4 10 17 -7 31 -22 18 -17
-14 -44 -5 -44 16 0 14 -8 15 -45 9 -44 -6 -51 -2 -46 29 2 15 -18 6 -33 -15
-13 -18 -18 -19 -31 -8 -10 8 -12 17 -6 24 7 8 4 12 -8 12 -10 0 -18 -7 -17
-15 1 -20 -19 -24 -37 -6 -18 18 -28 19 -24 4 1 -6 -4 -14 -10 -16 -22 -8 -14
20 15 50 l27 29 -33 -7 c-18 -4 -45 -13 -60 -21 -31 -16 -52 -3 -52 32 0 30
17 31 23 2 l4 -23 2 23 c1 28 -23 39 -46 21 -13 -11 -17 -11 -20 -1 -7 18 -30
15 -42 -5 -9 -16 -12 -16 -20 -3 -6 8 -7 17 -3 20 19 14 -2 64 -24 56 -18 -7
-18 1 1 54 l15 42 -30 -6 c-17 -3 -30 -1 -30 4 0 6 8 10 18 10 13 1 11 4 -8
15 -22 13 -23 14 -5 15 15 0 17 2 6 9 -7 5 -10 14 -7 20 4 6 3 11 -3 11 -5 0
-12 -8 -14 -17 -4 -17 -5 -17 -6 0 0 10 8 27 19 39 23 25 19 38 -5 15 -20 -21
-111 -21 -119 0 -3 8 -10 11 -16 8 -5 -3 -16 -3 -22 1 -9 6 -5 10 12 15 25 7
25 7 2 8 -13 1 -21 5 -17 10 3 5 22 7 43 4 l37 -5 -30 17 c-16 10 -42 24 -57
32 -16 8 -28 19 -28 24 0 5 -6 9 -14 9 -8 0 -17 6 -19 13 -3 6 -6 3 -7 -8 0
-15 -4 -12 -15 13 -8 17 -21 32 -30 32 -9 0 -18 6 -21 14 -3 8 -16 13 -29 12
-19 -3 -64 30 -53 39 2 1 13 8 26 14 33 17 18 30 -27 24 -39 -5 -59 7 -46 27
5 8 11 7 21 -1 17 -14 19 0 3 35 -13 29 -39 42 -39 21z m108 -184 c10 -6 7
-10 -13 -15 -14 -4 -30 -4 -35 -1 -6 4 -10 -1 -10 -9 0 -18 -2 -19 -24 -10
-13 5 -12 9 7 25 24 20 54 24 75 10z m2476 -63 c-6 -9 -23 8 -41 40 -22 37
-14 39 16 2 16 -19 27 -38 25 -42z m-2704 48 c0 -11 -19 -15 -25 -6 -3 5 1 10
9 10 9 0 16 -2 16 -4z m80 -28 c0 -16 -3 -19 -11 -11 -6 6 -8 16 -5 22 11 17
16 13 16 -11z m-30 2 c0 -5 -5 -10 -11 -10 -5 0 -7 5 -4 10 3 6 8 10 11 10 2
0 4 -4 4 -10z m75 -9 c3 -5 1 -12 -4 -15 -5 -3 -11 1 -15 9 -6 16 9 21 19 6z
m-94 -34 c-1 -4 -4 -8 -8 -8 -5 -1 -18 -5 -30 -10 -14 -5 -23 -5 -23 1 0 6 9
10 20 10 11 0 20 5 20 11 0 6 5 9 11 7 6 -2 10 -7 10 -11z m2650 -60 c-8 -8
-11 -5 -11 9 0 27 14 41 18 19 2 -9 -1 -22 -7 -28z m-2731 25 c0 -15 -11 -21
-27 -15 -12 5 -12 7 -1 14 17 11 28 11 28 1z m2789 -69 c-17 -43 -44 -56 -46
-22 -2 29 14 59 30 56 7 -1 11 8 10 23 -2 25 -2 25 9 3 8 -17 7 -32 -3 -60z
m-82 45 c-3 -8 -6 -5 -6 6 -1 11 2 17 5 13 3 -3 4 -12 1 -19z m-80 -110 c-3
-7 -5 -2 -5 12 0 14 2 19 5 13 2 -7 2 -19 0 -25z m-159 -6 c6 -18 -15 -14 -22
4 -4 10 -1 14 6 12 6 -2 14 -10 16 -16z m237 -12 c3 -5 1 -10 -4 -10 -6 0 -11
5 -11 10 0 6 2 10 4 10 3 0 8 -4 11 -10z m90 -18 c-3 -3 -11 0 -18 7 -9 10 -8
11 6 5 10 -3 15 -9 12 -12z m-365 4 c0 -3 -4 -8 -10 -11 -5 -3 -10 -1 -10 4 0
6 5 11 10 11 6 0 10 -2 10 -4z m320 0 c0 -3 -4 -8 -10 -11 -5 -3 -10 -1 -10 4
0 6 5 11 10 11 6 0 10 -2 10 -4z m30 -56 c0 -5 -2 -10 -4 -10 -3 0 -8 5 -11
10 -3 6 -1 10 4 10 6 0 11 -4 11 -10z m-383 -22 c-3 -8 -6 -5 -6 6 -1 11 2 17
5 13 3 -3 4 -12 1 -19z m-1767 -8 c0 -5 -2 -10 -4 -10 -3 0 -8 5 -11 10 -3 6
-1 10 4 10 6 0 11 -4 11 -10z m2014 4 c20 -8 21 -24 2 -24 -8 0 -16 7 -20 15
-6 17 -4 18 18 9z m-2004 -34 c0 -5 -2 -10 -4 -10 -3 0 -8 5 -11 10 -3 6 -1
10 4 10 6 0 11 -4 11 -10z m2040 -84 c0 -3 -9 -6 -20 -6 -22 0 -23 1 -14 24 5
13 8 13 20 1 8 -7 14 -16 14 -19z m-405 -46 c3 -5 -1 -10 -9 -10 -9 0 -16 5
-16 10 0 6 4 10 9 10 6 0 13 -4 16 -10z m-758 -72 c-3 -7 -5 -2 -5 12 0 14 2
19 5 13 2 -7 2 -19 0 -25z m273 3 c0 -6 -4 -13 -10 -16 -5 -3 -10 1 -10 9 0 9
5 16 10 16 6 0 10 -4 10 -9z m755 -9 c-3 -3 -11 0 -18 7 -9 10 -8 11 6 5 10
-3 15 -9 12 -12z m-538 -18 c2 -13 1 -15 -4 -4 -3 8 -11 19 -17 23 -7 6 -6 7
4 4 8 -2 16 -12 17 -23z m-130 -6 c-3 -8 -6 -5 -6 6 -1 11 2 17 5 13 3 -3 4
-12 1 -19z m50 -475 c-3 -10 -5 -2 -5 17 0 19 2 27 5 18 2 -10 2 -26 0 -35z
m-187 -33 c0 -5 -4 -10 -10 -10 -5 0 -10 5 -10 10 0 6 5 10 10 10 6 0 10 -4
10 -10z m-160 -30 c0 -13 -5 -18 -15 -13 -9 3 -25 -3 -35 -12 -23 -21 -27 -4
-5 19 9 8 22 13 30 10 8 -4 15 -1 15 5 0 6 2 11 5 11 3 0 5 -9 5 -20z"/>
<path d="M6050 3970 c0 -5 5 -10 10 -10 6 0 10 5 10 10 0 6 -4 10 -10 10 -5 0
-10 -4 -10 -10z"/>
<path d="M3240 3960 c0 -4 -11 -12 -24 -18 -28 -12 -43 -65 -17 -60 9 2 16 10
17 18 1 8 2 21 2 28 1 7 16 12 37 12 40 0 47 15 10 22 -14 3 -25 2 -25 -2z"/>
<path d="M6310 3954 c0 -8 5 -12 10 -9 6 4 8 11 5 16 -9 14 -15 11 -15 -7z"/>
<path d="M3127 3923 c-4 -3 -7 -13 -7 -21 0 -12 3 -12 15 -2 8 7 15 16 15 21
0 11 -14 12 -23 2z"/>
<path d="M6046 3898 c-8 -33 -7 -48 3 -48 5 0 7 10 3 22 -3 13 -1 19 6 15 6
-4 9 -1 8 8 -4 25 -13 27 -20 3z"/>
<path d="M3241 3889 c-11 -19 -11 -21 4 -15 9 3 19 6 21 6 2 0 4 7 4 15 0 21
-13 19 -29 -6z"/>
<path d="M6150 3891 c0 -25 6 -27 13 -6 4 8 2 17 -3 20 -6 4 -10 -3 -10 -14z"/>
<path d="M3320 3879 c0 -5 5 -7 10 -4 6 3 10 8 10 11 0 2 -4 4 -10 4 -5 0 -10
-5 -10 -11z"/>
<path d="M3140 3855 c0 -8 29 -12 39 -5 9 5 4 8 -13 8 -14 0 -26 -2 -26 -3z"/>
<path d="M6070 3856 c0 -15 21 -56 29 -56 5 0 4 13 -2 30 -9 25 -27 42 -27 26z"/>
<path d="M6002 3830 c0 -14 2 -19 5 -12 2 6 2 18 0 25 -3 6 -5 1 -5 -13z"/>
<path d="M6026 3825 c-3 -8 -1 -15 4 -15 6 0 10 7 10 15 0 8 -2 15 -4 15 -2 0
-6 -7 -10 -15z"/>
<path d="M4390 3811 c0 -5 -10 -7 -22 -4 -18 4 -16 0 9 -16 18 -11 35 -32 39
-45 4 -19 15 -27 40 -32 24 -4 34 -11 32 -22 -2 -11 5 -16 22 -17 16 0 29 -9
37 -25 7 -14 13 -21 13 -17 0 4 9 3 21 -4 17 -9 23 -7 36 10 13 20 40 20 28 1
-3 -5 -1 -19 5 -30 l11 -21 26 20 c23 19 27 19 46 6 29 -20 34 -19 46 13 11
26 11 25 7 -10 -4 -29 -1 -36 10 -31 8 3 14 -1 14 -11 0 -9 4 -16 9 -16 5 0 7
9 4 19 -4 17 0 19 26 17 17 -1 38 -11 47 -22 8 -10 13 -13 9 -6 -3 7 0 26 9
43 8 16 13 38 10 47 -3 9 1 6 9 -7 10 -17 16 -20 19 -10 5 12 9 12 28 1 17
-11 24 -11 30 -2 5 8 9 7 14 -5 8 -22 26 -9 26 20 0 22 2 23 30 14 17 -6 30
-15 30 -20 0 -5 6 -9 14 -9 8 0 17 -6 20 -12 3 -7 5 -4 5 7 -2 40 1 55 12 55
5 0 7 -4 4 -10 -3 -5 3 -10 14 -10 16 0 21 6 21 24 0 13 2 31 6 39 7 18 -68
32 -95 18 -12 -7 -21 -7 -28 0 -13 13 -161 21 -168 8 -5 -7 -11 -6 -20 1 -19
16 -63 22 -70 10 -7 -11 -101 -3 -120 9 -23 16 -73 12 -84 -6 -6 -10 -11 -12
-11 -5 0 7 -13 12 -29 12 -16 0 -36 7 -44 15 -12 11 -17 12 -20 2 -4 -9 -8 -9
-15 2 -8 12 -13 12 -25 2 -12 -9 -16 -9 -20 1 -5 11 -7 11 -15 0 -7 -10 -11
-10 -22 3 -14 17 -30 20 -30 6z"/>
<path d="M6044 3798 c-5 -16 0 -27 18 -42 28 -24 58 -84 58 -115 0 -12 7 -24
16 -28 8 -3 13 -12 10 -19 -6 -15 19 -20 28 -5 3 5 14 11 25 14 30 7 15 -20
-17 -32 -15 -5 -20 -10 -12 -10 8 0 26 6 39 13 14 8 31 12 38 9 7 -3 13 0 13
7 0 6 4 9 9 6 5 -4 7 3 4 15 -3 12 0 24 6 29 9 5 7 9 -7 12 -16 4 -19 2 -15
-10 5 -11 2 -14 -10 -9 -8 3 -18 1 -21 -6 -2 -7 -5 0 -5 16 -1 29 -10 34 -29
15 -16 -16 -25 -4 -17 22 5 16 10 18 20 10 9 -7 16 -6 24 4 16 19 -10 41 -27
24 -9 -9 -12 -8 -12 6 0 9 -5 14 -10 11 -6 -3 -13 1 -16 10 -10 24 -23 -1 -25
-45 l-1 -35 -10 35 c-5 19 -14 41 -20 48 -8 9 -6 12 6 12 9 0 16 -6 17 -12 1
-17 17 23 18 44 1 14 -4 13 -25 -7 -15 -14 -30 -25 -34 -25 -13 0 -33 30 -26
37 4 4 12 1 17 -7 9 -12 10 -12 5 3 -3 10 -6 21 -6 23 0 14 -20 0 -26 -18z
m150 -187 c-4 -5 -64 23 -64 31 0 16 25 12 45 -6 11 -12 20 -23 19 -25z"/>
<path d="M6170 3816 c0 -2 7 -9 15 -16 9 -7 15 -8 15 -2 0 5 -7 12 -15 16 -8
3 -15 4 -15 2z"/>
<path d="M5234 3758 c-15 -24 -12 -35 9 -33 26 2 32 18 13 34 -11 9 -16 9 -22
-1z"/>
<path d="M6225 3743 c11 -3 25 -12 31 -21 8 -11 13 -12 18 -3 4 6 13 8 19 5 8
-5 9 -4 2 4 -5 6 -28 13 -50 16 -22 3 -31 3 -20 -1z"/>
<path d="M6285 3690 c-4 -12 -5 -24 -2 -27 3 -2 8 5 12 17 4 12 5 24 2 27 -3
2 -8 -5 -12 -17z"/>
<path d="M6210 3542 c0 -10 -7 -12 -25 -8 -29 7 -32 -1 -7 -20 22 -17 32 -17
32 0 0 7 10 21 23 29 l22 15 -22 -1 c-13 -1 -23 -8 -23 -15z"/>
<path d="M2994 3379 c-38 -44 -74 -86 -80 -93 -6 -6 -9 -17 -6 -25 3 -10 0
-12 -12 -8 -9 4 -16 3 -17 -1 -4 -36 -7 -50 -13 -69 -5 -16 -1 -28 14 -43 17
-17 18 -21 5 -26 -19 -8 -20 -24 0 -24 11 0 15 -11 15 -40 0 -29 -4 -40 -15
-40 -8 0 -15 -9 -15 -20 0 -11 6 -20 14 -20 17 0 23 -41 25 -158 1 -53 -3 -81
-9 -77 -5 3 -10 13 -10 21 0 22 -16 17 -28 -10 -10 -21 -8 -26 8 -31 11 -4 20
-11 20 -16 0 -5 6 -9 13 -9 8 0 12 -14 12 -40 0 -22 -4 -40 -8 -40 -5 0 -7 -6
-4 -14 3 -7 0 -19 -6 -25 -9 -9 -6 -13 11 -17 38 -11 27 -34 -13 -27 -31 5
-35 3 -29 -12 4 -9 2 -20 -4 -24 -8 -4 -3 -16 13 -35 18 -21 28 -26 37 -18 9
7 17 6 25 -3 18 -19 8 -23 -42 -15 -25 4 -45 3 -45 -1 0 -10 70 -30 82 -23 4
3 8 -2 8 -10 0 -19 -31 -21 -48 -4 -7 7 -12 10 -13 8 -14 -89 -18 -100 -36
-100 -14 0 -15 -2 -4 -12 11 -10 14 -10 18 0 3 6 11 12 18 12 7 0 15 5 17 12
2 6 9 8 16 4 8 -5 5 -13 -8 -26 -11 -11 -17 -26 -14 -35 9 -22 21 -19 28 8 l6
22 16 -24 c14 -19 14 -25 3 -32 -11 -7 -9 -9 6 -9 20 -1 20 -1 1 -15 -11 -8
-14 -15 -7 -15 6 0 11 -6 10 -12 -4 -30 2 -38 24 -35 12 2 16 2 10 0 -17 -6
-16 -21 2 -39 19 -20 19 -44 0 -44 -11 0 -14 -7 -9 -25 4 -18 1 -32 -11 -45
-10 -11 -15 -23 -12 -27 4 -3 7 -1 7 5 0 7 4 12 10 12 5 0 9 -3 7 -8 -1 -4 3
-7 8 -7 6 0 9 6 9 13 -4 29 20 3 37 -41 19 -47 19 -48 0 -37 -25 13 -31 13
-31 -1 0 -5 4 -8 9 -5 5 3 12 -1 15 -10 3 -8 10 -12 16 -9 5 3 10 1 10 -5 0
-6 -13 -16 -30 -21 -16 -6 -30 -17 -30 -25 0 -16 16 -19 25 -4 3 5 12 10 18 9
9 0 9 -2 0 -6 -18 -7 -16 -23 2 -23 8 0 15 -4 15 -10 0 -5 -21 -8 -47 -7 -30
1 -48 -3 -51 -11 -3 -9 4 -11 24 -6 22 6 26 4 21 -9 -3 -9 -1 -18 6 -21 7 -2
-10 -2 -36 1 -31 4 -47 2 -45 -5 2 -5 -1 -10 -7 -11 -10 -1 -11 3 -14 34 0 8
-6 15 -12 15 -7 0 -8 -11 -4 -30 8 -38 -7 -39 -23 -2 -11 26 -11 26 -7 2 4
-24 4 -24 -7 3 -7 15 -15 27 -20 27 -12 0 -10 -28 2 -35 6 -4 8 -11 4 -16 -3
-5 -10 -6 -16 -3 -5 4 -40 7 -76 8 -52 1 -67 4 -68 16 -2 34 -5 40 -15 40 -7
0 -9 -10 -5 -25 5 -20 3 -25 -12 -25 -26 0 -34 11 -21 27 9 9 8 13 0 13 -10 0
-15 -13 -12 -32 2 -12 -13 -10 -26 3 -6 6 -13 7 -17 1 -7 -11 -86 -4 -102 9
-7 6 -15 6 -18 1 -3 -5 -22 -8 -43 -6 -54 3 -53 3 -53 19 0 8 -4 15 -10 15 -5
0 -10 7 -10 15 0 16 -12 20 -24 8 -4 -4 3 -15 16 -24 25 -19 20 -34 -9 -25
-10 3 -24 20 -31 38 -6 17 -15 29 -19 25 -4 -4 -1 -13 5 -19 23 -23 14 -38
-20 -34 -18 2 -43 4 -56 5 -13 0 -21 5 -17 11 3 5 12 7 19 4 14 -6 33 32 22
43 -3 4 -6 -1 -6 -10 0 -11 -8 -17 -22 -17 -22 1 -22 1 -5 14 10 8 14 17 8 20
-5 3 -12 0 -14 -6 -4 -10 -8 -10 -15 1 -8 11 -11 8 -14 -15 -2 -19 -10 -30
-23 -33 -17 -3 -18 -1 -5 14 12 14 12 18 -1 26 -22 14 -28 11 -22 -11 4 -17 0
-20 -25 -20 -18 0 -32 6 -36 16 -4 9 -13 13 -24 10 -10 -4 -27 1 -38 10 -18
14 -18 15 4 4 23 -11 42 -6 42 11 0 5 -11 9 -24 9 -29 0 -63 40 -44 51 7 5 18
4 24 -2 6 -5 19 -7 28 -3 11 4 16 1 16 -11 0 -12 -5 -15 -20 -10 -11 4 -20 2
-20 -4 0 -6 8 -11 19 -11 10 0 40 -3 67 -6 46 -5 48 -4 30 10 -11 9 -28 14
-37 11 -11 -4 -18 2 -23 17 -8 32 -7 40 3 33 5 -3 11 0 14 7 2 7 3 3 1 -8 -2
-13 2 -24 11 -28 9 -3 15 0 15 9 0 8 2 15 5 15 10 0 43 -39 48 -57 3 -12 5 -9
6 10 0 15 -3 27 -7 27 -4 0 -13 15 -20 33 -15 41 -15 47 -2 47 6 0 10 -7 10
-15 0 -17 16 -20 25 -5 3 6 2 10 -3 10 -13 0 -44 83 -33 89 5 3 11 15 14 26 4
11 5 8 3 -9 -5 -40 12 -96 29 -96 8 0 15 4 15 9 0 5 9 11 20 14 11 3 20 0 20
-6 0 -6 2 -8 5 -5 8 8 -26 69 -50 90 -20 18 -20 18 4 38 13 11 18 20 12 20 -7
0 -10 4 -7 8 3 4 1 26 -4 47 -7 30 -5 43 6 56 7 8 14 23 14 31 0 9 9 18 20 21
14 4 18 10 13 23 -6 16 -7 16 -14 -2 -6 -13 -8 -7 -6 21 2 37 4 40 30 37 28
-4 35 6 16 25 -8 8 -6 18 7 38 17 26 17 28 -1 41 -21 15 -30 10 -39 -21 -3
-11 -3 0 0 24 3 30 0 51 -12 68 l-16 25 -51 -58 c-73 -84 -161 -168 -242 -232
-38 -31 -76 -62 -84 -70 -7 -7 -36 -28 -65 -47 -189 -127 -303 -206 -318 -219
-10 -9 -22 -16 -27 -16 -6 0 -13 -5 -17 -12 -5 -7 -2 -8 7 -3 11 6 10 4 -1 -8
-8 -8 -26 -18 -40 -21 l-25 -7 25 15 c14 9 19 15 12 16 -22 0 -52 -20 -52 -35
0 -8 -5 -15 -11 -15 -5 0 -7 5 -4 10 10 16 -12 12 -29 -5 -8 -8 -26 -15 -40
-15 -14 0 -26 -5 -26 -10 0 -6 -3 -9 -8 -9 -29 5 -62 -2 -56 -13 5 -7 3 -8 -5
-4 -7 5 -20 1 -29 -7 -9 -8 -33 -17 -54 -21 -31 -6 -54 -27 -50 -47 0 -3 -5
-6 -13 -6 -8 0 -12 3 -10 7 2 4 -3 7 -11 7 -8 0 -13 -6 -10 -13 3 -7 -2 -15
-10 -18 -8 -3 -14 -1 -14 4 0 19 -18 10 -23 -11 -6 -22 -44 -23 -39 -1 1 7 -2
12 -8 12 -5 0 -10 -5 -10 -11 0 -6 -9 -8 -21 -4 -19 6 -20 5 -8 -8 8 -8 17
-13 22 -10 14 9 7 -10 -9 -22 -18 -13 -64 -8 -64 7 0 5 5 6 10 3 6 -3 10 -1
10 4 0 16 -16 13 -34 -5 -18 -17 -21 -28 -6 -19 13 8 13 -16 -1 -35 -8 -11
-12 -12 -16 -2 -8 21 -20 13 -28 -20 -6 -29 -8 -31 -15 -13 -5 11 -9 16 -9 11
-1 -6 -7 -1 -15 10 -19 25 -31 12 -16 -17 11 -20 10 -21 -11 -16 -13 4 -28 7
-32 7 -5 0 -5 6 -2 13 4 6 -5 -1 -19 -18 l-25 -29 -23 19 -23 20 19 -23 c18
-21 19 -24 3 -39 -16 -16 -18 -16 -30 1 -9 13 -16 15 -21 8 -3 -6 2 -16 11
-22 13 -8 14 -13 6 -16 -7 -3 -13 -13 -13 -21 0 -10 -6 -14 -20 -10 -15 4 -20
0 -20 -15 0 -20 -1 -20 -19 -4 -11 10 -17 24 -15 31 4 10 -8 13 -45 13 -28 1
-51 -3 -51 -9 0 -5 -5 -9 -10 -9 -6 0 -24 -10 -40 -22 -22 -16 -28 -27 -24
-43 7 -27 -23 -56 -36 -36 -6 10 -12 7 -25 -13 -26 -40 -49 -35 -41 9 5 26 3
40 -9 51 -13 14 -15 14 -15 -1 0 -9 -9 -19 -20 -22 -11 -3 -20 -12 -20 -19 0
-19 19 -18 26 1 4 8 10 15 15 15 14 0 11 -48 -3 -53 -10 -4 -10 -6 0 -6 14 -1
17 -81 3 -81 -5 0 -7 -18 -5 -41 4 -35 3 -40 -13 -37 -15 3 -18 15 -21 83 -2
63 -7 83 -22 97 -24 22 -48 24 -26 2 25 -24 20 -44 -11 -44 -25 0 -26 0 -8
-20 16 -18 17 -20 1 -20 -14 0 -16 -11 -15 -73 2 -99 22 -134 48 -84 11 20 11
19 6 -10 -3 -23 -1 -33 9 -33 13 0 36 41 36 65 0 27 20 15 27 -15 6 -31 23
-42 23 -14 0 21 24 12 29 -11 3 -15 -2 -17 -32 -12 -39 6 -57 -14 -36 -39 9
-11 8 -14 -4 -14 -8 0 -18 7 -21 15 -4 13 -10 14 -26 5 -16 -8 -22 -8 -26 4
-3 8 -12 17 -20 20 -12 5 -14 -72 -14 -534 l0 -540 4810 0 4810 0 0 705 0 705
-24 0 c-13 0 -26 -5 -28 -12 -3 -9 -6 -9 -11 0 -5 6 3 18 18 28 31 21 36 69 6
61 -11 -3 -26 2 -35 12 -8 9 -25 27 -36 39 -21 23 -36 24 -84 6 -11 -4 -16 0
-16 12 -1 18 -1 18 -14 2 -16 -21 -32 -23 -43 -5 -4 6 -18 20 -30 31 -17 14
-26 16 -36 7 -8 -6 -16 -9 -19 -6 -3 3 -18 -1 -33 -9 -30 -16 -45 -13 -45 9 0
7 -11 16 -25 19 -13 3 -29 15 -35 26 -13 25 -40 26 -40 3 -1 -16 -2 -16 -15 1
-14 19 -15 19 -15 -6 0 -31 -9 -58 -19 -58 -4 0 -13 16 -21 35 -15 37 -37 42
-33 7 1 -11 -4 -26 -13 -32 -12 -11 -13 -10 -9 3 4 9 -2 21 -15 30 -17 12 -18
15 -5 20 28 11 17 37 -16 37 -17 0 -28 -4 -24 -10 3 -6 -4 -10 -16 -10 -21 0
-22 1 -4 20 10 11 13 20 7 20 -7 0 -12 -4 -12 -10 0 -5 -7 -10 -15 -10 -8 0
-15 -4 -15 -10 0 -20 -39 -10 -46 12 l-6 21 -13 -22 c-10 -20 -13 -21 -18 -6
-4 9 -2 26 4 37 6 11 8 22 5 26 -3 3 -6 0 -6 -6 0 -7 -9 -12 -20 -12 -13 0
-20 7 -20 19 0 26 -18 37 -26 17 -4 -9 -18 -16 -33 -16 -24 0 -30 6 -40 39
l-11 39 -56 -54 c-61 -58 -79 -65 -89 -34 -3 11 -11 20 -16 20 -5 0 -9 14 -9
30 0 17 5 30 10 30 6 0 10 5 10 11 0 7 8 18 18 25 16 13 16 13 0 14 -10 0 -18
-5 -18 -10 0 -6 -8 -10 -17 -8 -14 3 -17 -7 -19 -59 -1 -35 2 -63 7 -63 5 0 9
-9 9 -20 0 -11 -4 -20 -10 -20 -5 0 -10 9 -10 20 0 23 -29 27 -48 8 -9 -9 -12
-9 -12 0 0 6 12 22 26 36 17 15 25 30 21 40 -9 22 -27 20 -27 -3 0 -11 -4 -23
-10 -26 -5 -3 -10 -1 -10 4 0 6 -4 11 -10 11 -14 0 -12 -27 3 -33 7 -3 6 -6
-5 -6 -24 -1 -32 17 -16 37 16 19 38 68 38 83 0 6 -8 5 -21 -1 -11 -7 -18 -14
-16 -17 3 -2 -4 -16 -16 -30 -12 -13 -27 -39 -34 -56 -6 -18 -12 -25 -12 -16
-1 8 -17 30 -36 49 -28 27 -35 30 -35 16 0 -13 -3 -16 -12 -9 -7 6 -25 13 -40
15 -21 4 -28 1 -28 -10 0 -8 3 -12 6 -9 4 4 19 0 33 -7 14 -8 34 -17 43 -20
10 -3 15 -11 12 -20 -3 -8 -1 -17 5 -21 6 -3 11 -13 11 -21 0 -11 -4 -12 -19
-2 -15 9 -28 9 -55 1 -27 -8 -36 -8 -36 0 0 7 -5 5 -10 -4 -5 -8 -28 -22 -52
-29 -24 -7 -47 -17 -53 -21 -15 -10 -123 -32 -280 -56 -22 -3 -265 -7 -541 -7
-484 -1 -501 0 -496 18 4 15 1 17 -17 11 -12 -4 -21 -2 -21 4 0 6 7 11 15 11
8 0 15 5 15 10 0 6 -7 10 -16 10 -8 0 -13 4 -10 9 4 5 2 11 -4 13 -6 2 -3 18
7 41 16 35 33 49 33 27 0 -5 5 -10 10 -10 14 0 12 11 -5 34 -13 18 -15 17 -38
-8 -13 -14 -27 -23 -30 -20 -3 4 1 13 10 22 14 14 13 17 -3 30 -17 12 -15 13
21 10 31 -2 40 1 43 14 3 14 -3 15 -37 11 l-39 -5 12 36 c16 47 21 50 69 55 4
1 7 6 7 12 0 6 -7 9 -15 5 -10 -4 -15 1 -15 14 0 11 -5 20 -11 20 -7 0 -9 -10
-7 -25 4 -19 1 -25 -13 -25 -23 0 -26 45 -4 57 18 10 9 53 -12 53 -10 0 -12 6
-8 21 6 18 4 20 -15 14 -21 -7 -22 -5 -16 29 4 23 3 36 -4 36 -5 0 -10 5 -10
11 0 6 7 8 17 5 17 -7 33 9 33 32 0 6 -4 12 -10 12 -5 0 -10 -7 -10 -15 0 -8
-4 -15 -10 -15 -5 0 -7 14 -3 33 6 34 6 34 4 56 -1 11 -5 10 -16 -5 -17 -22
-18 -14 -6 39 8 32 7 36 -5 26 -11 -9 -14 -8 -14 8 0 33 12 35 32 6 16 -25 18
-26 18 -7 0 24 -42 74 -62 74 -8 0 -9 3 -3 8 14 10 19 79 6 87 -6 3 -11 17
-11 30 0 13 -4 26 -9 29 -4 3 -6 18 -4 33 3 21 2 24 -6 13 -7 -11 -10 -1 -9
35 1 93 -3 135 -14 135 -6 0 -8 13 -4 33 3 17 1 50 -5 72 -5 22 -12 89 -14
148 -4 103 -15 167 -35 212 -41 95 -74 155 -80 148 -5 -4 -13 -62 -19 -128
-25 -267 -33 -319 -66 -423 -18 -59 -40 -123 -48 -142 -8 -19 -23 -64 -32
-100 -9 -36 -22 -74 -29 -85 -11 -17 -28 -72 -30 -97 -1 -3 -4 -10 -8 -14 -5
-4 -8 -17 -8 -28 0 -12 -11 -43 -25 -71 -13 -27 -25 -58 -25 -68 0 -10 -11
-38 -25 -63 -27 -48 -31 -70 -15 -76 14 -4 -11 -68 -27 -68 -7 0 -10 -6 -7
-13 3 -8 -2 -19 -10 -26 -8 -7 -18 -33 -22 -57 -3 -24 -10 -47 -15 -50 -5 -3
-9 -19 -9 -36 0 -21 -6 -31 -20 -35 -13 -3 -20 -14 -20 -29 0 -12 -5 -26 -11
-30 -6 -3 -8 -16 -5 -28 3 -13 -4 -34 -21 -59 -21 -30 -24 -40 -13 -47 10 -6
7 -14 -15 -34 -15 -14 -32 -26 -38 -26 -5 0 -6 -7 -3 -16 4 -9 -4 -28 -19 -45
-13 -16 -22 -36 -19 -43 3 -8 1 -17 -5 -21 -6 -3 -11 -19 -11 -36 0 -16 -4
-29 -9 -29 -5 0 -11 -9 -14 -20 -4 -15 0 -20 14 -20 21 0 25 -10 10 -25 -6 -6
-13 -29 -17 -52 -6 -39 -5 -43 15 -43 16 0 21 6 21 25 0 32 12 32 27 0 9 -21
9 -25 -5 -25 -15 -1 -15 -2 1 -14 23 -18 22 -46 -3 -46 -21 0 -19 -20 5 -50 7
-8 15 -23 18 -32 4 -13 2 -16 -11 -11 -16 5 -16 4 -1 -11 13 -14 21 -15 45 -6
16 6 35 18 42 27 11 16 12 16 12 0 0 -11 5 -14 18 -10 14 6 15 4 4 -9 -6 -8
-11 -30 -9 -47 5 -45 -19 -130 -42 -150 -36 -32 -243 -128 -295 -138 -78 -15
-203 -87 -429 -248 -26 -18 -82 -47 -125 -64 -42 -16 -108 -46 -147 -66 -56
-29 -71 -33 -73 -20 -2 8 -8 15 -13 15 -6 0 -8 4 -4 9 3 5 1 12 -5 16 -6 3
-25 30 -44 58 -41 63 -71 99 -203 236 -198 207 -222 234 -217 242 3 5 -3 9
-14 9 -10 0 -24 11 -30 25 -12 27 -4 33 16 13 10 -10 12 -3 10 34 -2 25 -6 44
-10 41 -5 -2 -7 6 -5 18 1 17 -5 25 -23 30 -24 7 -24 7 -2 8 30 1 28 12 -8 46
-16 16 -30 36 -30 44 0 14 -2 14 -10 1 -7 -11 -11 -9 -19 13 -6 15 -16 27 -22
27 -6 0 -23 12 -37 27 -26 29 -54 48 -84 59 -10 3 -15 11 -11 17 4 6 -4 8 -21
5 -18 -4 -26 -1 -26 8 0 8 -9 14 -20 14 -11 0 -23 6 -26 14 -5 13 -25 23 -68
32 -11 3 -25 9 -32 15 -7 6 -24 12 -38 13 -28 3 -86 57 -86 80 0 8 -9 20 -19
26 -11 5 -23 20 -26 32 -12 41 -30 78 -37 78 -5 0 -8 15 -8 34 0 19 -5 38 -11
42 -19 11 -49 87 -49 126 0 20 -4 38 -9 40 -9 3 -51 120 -51 143 0 9 -7 27
-16 40 -9 14 -14 35 -11 47 4 14 -2 33 -17 53 -12 16 -26 50 -30 74 -4 24 -10
49 -14 55 -6 11 -30 73 -56 151 -8 22 -25 65 -39 96 -14 31 -23 60 -20 63 4 3
0 14 -8 23 -24 30 -51 90 -52 117 -1 14 -5 26 -8 26 -4 0 -20 37 -37 83 -31
84 -42 141 -62 307 -31 261 -50 370 -64 370 -7 0 -43 -36 -82 -81z m-788 -886
c-10 -10 -19 5 -10 18 6 11 8 11 12 0 2 -7 1 -15 -2 -18z m724 -24 c0 -18 -35
-5 -38 14 -3 16 -1 17 17 7 12 -6 21 -15 21 -21z m0 -124 c0 -8 -7 -15 -15
-15 -16 0 -20 12 -8 23 11 12 23 8 23 -8z m30 -55 c-8 -5 -19 -10 -25 -10 -5
0 -3 5 5 10 8 5 20 10 25 10 6 0 3 -5 -5 -10z m10 -30 c0 -5 -4 -10 -10 -10
-5 0 -10 5 -10 10 0 6 5 10 10 10 6 0 10 -4 10 -10z m-825 -90 c3 -5 1 -10 -4
-10 -6 0 -11 5 -11 10 0 6 2 10 4 10 3 0 8 -4 11 -10z m-305 -23 c0 -7 -9 -18
-20 -25 -12 -7 -20 -8 -20 -2 0 5 5 10 10 10 6 0 10 7 10 15 0 8 5 15 10 15 6
0 10 -6 10 -13z m315 -7 c3 -5 1 -10 -4 -10 -6 0 -11 5 -11 10 0 6 2 10 4 10
3 0 8 -4 11 -10z m-275 -4 c0 -2 -7 -7 -16 -10 -8 -3 -12 -2 -9 4 6 10 25 14
25 6z m10 -114 c0 -29 -14 -20 -25 15 -5 18 -3 22 9 17 9 -3 16 -18 16 -32z
m-233 -4 c-3 -7 -5 -2 -5 12 0 14 2 19 5 13 2 -7 2 -19 0 -25z m513 25 c0 -5
-5 -15 -10 -23 -8 -12 -10 -11 -10 8 0 12 5 22 10 22 6 0 10 -3 10 -7z m-80
-43 c0 -12 -3 -12 -16 2 -9 9 -13 21 -9 28 9 14 25 -5 25 -30z m-460 -10 c0
-11 -2 -20 -4 -20 -2 0 -6 9 -9 20 -3 11 -1 20 4 20 5 0 9 -9 9 -20z m334 -23
c7 -6 6 -7 -4 -4 -8 2 -16 12 -17 23 -2 13 -1 15 4 4 3 -8 11 -19 17 -23z
m-194 13 c0 -5 -4 -10 -10 -10 -5 0 -10 5 -10 10 0 6 5 10 10 10 6 0 10 -4 10
-10z m150 -26 c0 -8 -4 -12 -10 -9 -5 3 -10 13 -10 21 0 8 5 12 10 9 6 -3 10
-13 10 -21z m4720 22 c0 -2 -7 -7 -16 -10 -8 -3 -12 -2 -9 4 6 10 25 14 25 6z
m-4610 -26 c0 -11 -4 -20 -10 -20 -5 0 -10 2 -10 4 0 2 -3 11 -6 20 -4 11 -1
16 10 16 9 0 16 -8 16 -20z m4165 -9 c-6 -28 10 -106 26 -124 3 -5 4 -18 1
-29 -5 -20 -5 -20 -18 3 -7 13 -10 35 -8 49 5 20 3 22 -5 10 -8 -11 -11 0 -11
46 0 54 5 74 17 74 3 0 2 -13 -2 -29z m-4375 9 c0 -5 -8 -10 -17 -10 -15 0
-16 2 -3 10 19 12 20 12 20 0z m-75 -29 c3 -5 1 -12 -5 -16 -5 -3 -10 1 -10 9
0 18 6 21 15 7z m-315 -16 c0 -8 -2 -15 -4 -15 -2 0 -6 7 -10 15 -3 8 -1 15 4
15 6 0 10 -7 10 -15z m380 -10 c0 -18 5 -25 20 -25 11 0 20 -4 20 -10 0 -5 -9
-10 -20 -10 -11 0 -20 5 -20 10 0 6 -21 11 -47 12 l-48 1 45 7 c25 4 37 8 28
8 -25 3 -23 32 2 32 15 0 20 -7 20 -25z m84 -5 c-6 -6 -10 -3 -10 10 0 13 4
16 10 10 7 -7 7 -13 0 -20z m106 9 c0 -5 -4 -9 -10 -9 -5 0 -10 7 -10 16 0 8
5 12 10 9 6 -3 10 -10 10 -16z m-163 -11 c-3 -8 -6 -5 -6 6 -1 11 2 17 5 13 3
-3 4 -12 1 -19z m93 -28 c0 -5 -4 -10 -9 -10 -6 0 -13 5 -16 10 -3 6 1 10 9
10 9 0 16 -4 16 -10z m15 -30 c3 -5 -1 -10 -10 -10 -9 0 -13 5 -10 10 3 6 8
10 10 10 2 0 7 -4 10 -10z m-252 -25 c15 -8 34 -12 42 -8 8 3 15 0 15 -6 0 -6
-6 -11 -12 -12 -10 0 -10 -2 0 -6 21 -8 13 -23 -12 -23 -13 0 -27 7 -30 16 -5
13 -11 12 -37 -10 -27 -23 -69 -35 -69 -21 0 3 16 19 35 36 19 17 32 35 29 40
-8 13 7 11 39 -6z m4545 -50 c-4 -16 -1 -25 7 -25 8 0 11 -8 8 -20 -3 -12 0
-20 7 -20 7 0 10 -6 7 -14 -3 -7 -1 -18 5 -24 7 -7 6 -16 -1 -29 -8 -12 -11
-13 -10 -3 1 8 -4 29 -11 45 -8 17 -14 35 -15 40 0 6 -4 15 -7 21 -7 11 0 54
9 54 3 0 3 -11 1 -25z m-5155 8 c-7 -2 -19 -2 -25 0 -7 3 -2 5 12 5 14 0 19
-2 13 -5z m-43 -23 c0 -6 12 -8 28 -4 19 4 23 3 13 -4 -7 -5 -10 -15 -7 -21
14 -21 -21 -11 -44 14 -19 21 -21 25 -7 25 9 0 17 -5 17 -10z m510 0 c0 -5 -4
-10 -10 -10 -5 0 -10 5 -10 10 0 6 5 10 10 10 6 0 10 -4 10 -10z m233 -17 c-7
-2 -19 -2 -25 0 -7 3 -2 5 12 5 14 0 19 -2 13 -5z m-213 -28 l0 -25 -25 22
c-14 12 -25 23 -25 25 0 2 11 3 25 3 20 0 25 -5 25 -25z m1768 -54 c-5 -41 -6
-81 -4 -88 3 -7 -1 -13 -10 -13 -12 0 -15 6 -11 23 3 12 9 47 12 77 7 59 13
85 19 79 2 -2 -1 -37 -6 -78z m5199 47 c-3 -7 -5 -2 -5 12 0 14 2 19 5 13 2
-7 2 -19 0 -25z m180 16 c-3 -3 -12 -4 -19 -1 -8 3 -5 6 6 6 11 1 17 -2 13 -5z
m-126 -17 c-1 -12 -15 -9 -19 4 -3 6 1 10 8 8 6 -3 11 -8 11 -12z m-2024 -44
c-3 -10 -5 -4 -5 12 0 17 2 24 5 18 2 -7 2 -21 0 -30z m2055 -45 c-9 -9 -12
-7 -12 12 0 19 3 21 12 12 9 -9 9 -15 0 -24z m235 10 c-3 -8 -6 -5 -6 6 -1 11
2 17 5 13 3 -3 4 -12 1 -19z m-2563 -14 c-5 -20 -4 -25 5 -20 9 6 10 0 5 -20
-5 -19 -4 -25 5 -20 7 5 11 -2 11 -18 0 -40 -18 -30 -25 14 -4 22 -10 40 -14
40 -5 0 -6 11 -3 25 2 14 8 25 13 25 5 0 6 -12 3 -26z m-3084 -4 c0 -5 -2 -10
-4 -10 -3 0 -8 5 -11 10 -3 6 -1 10 4 10 6 0 11 -4 11 -10z m-2580 -27 c-1
-25 -14 -53 -26 -53 -8 0 -14 -4 -14 -10 0 -5 -7 -10 -16 -10 -13 0 -11 6 10
26 14 15 26 33 26 40 0 8 5 14 10 14 6 0 10 -3 10 -7z m8553 -63 c3 -11 1 -20
-4 -20 -5 0 -9 9 -9 20 0 11 2 20 4 20 2 0 6 -9 9 -20z m-78 0 c3 -5 1 -10 -4
-10 -6 0 -11 5 -11 10 0 6 2 10 4 10 3 0 8 -4 11 -10z m388 -4 c7 -16 -1 -26
-20 -26 -7 0 -13 9 -13 20 0 23 25 27 33 6z m-93 -7 c-11 -8 -12 -12 -2 -16 6
-2 12 -12 12 -21 0 -13 -4 -12 -22 6 -20 19 -21 24 -8 32 21 13 39 12 20 -1z
m-5815 -19 c15 -17 16 -20 3 -20 -9 0 -18 9 -21 20 -3 11 -4 20 -3 20 2 0 11
-9 21 -20z m3011 -53 c-9 -18 -13 -23 -9 -12 4 11 7 36 7 55 -1 31 0 32 9 12
8 -17 6 -31 -7 -55z m-6198 20 c2 -19 -1 -27 -12 -27 -9 0 -16 5 -16 10 0 6
-7 10 -15 10 -21 0 -19 28 3 33 28 7 37 2 40 -26z m272 13 c0 -11 -4 -20 -10
-20 -5 0 -10 9 -10 20 0 11 5 20 10 20 6 0 10 -9 10 -20z m5677 -35 c3 -29 1
-45 -6 -45 -7 0 -11 21 -11 52 0 61 11 57 17 -7z m2315 20 c-12 -22 -27 -2
-18 22 5 12 10 13 17 6 7 -7 8 -17 1 -28z m878 15 c0 -5 -4 -10 -10 -10 -5 0
-10 5 -10 10 0 6 5 10 10 10 6 0 10 -4 10 -10z m-9250 -25 c0 -8 -4 -15 -10
-15 -5 0 -10 7 -10 15 0 8 5 15 10 15 6 0 10 -7 10 -15z m1197 9 c-3 -3 -12
-4 -19 -1 -8 3 -5 6 6 6 11 1 17 -2 13 -5z m1842 -28 c26 -28 14 -42 -27 -31
-40 10 -55 25 -41 41 17 21 43 17 68 -10z m6166 14 c3 -5 -3 -10 -14 -10 -12
0 -21 5 -21 10 0 6 6 10 14 10 8 0 18 -4 21 -10z m-1355 -26 c0 -18 -4 -18
-24 5 -17 19 -17 19 3 14 12 -3 21 -12 21 -19z m-7823 -31 c-3 -10 -5 -4 -5
12 0 17 2 24 5 18 2 -7 2 -21 0 -30z m1986 20 c-7 -2 -19 -2 -25 0 -7 3 -2 5
12 5 14 0 19 -2 13 -5z m3493 -19 c-3 -9 -6 -20 -6 -25 0 -5 -4 -9 -10 -9 -11
0 -14 33 -3 43 12 13 25 7 19 -9z m751 -6 c-3 -8 -6 -5 -6 6 -1 11 2 17 5 13
3 -3 4 -12 1 -19z m-4887 -18 c0 -5 -4 -10 -10 -10 -5 0 -10 5 -10 10 0 6 5
10 10 10 6 0 10 -4 10 -10z m580 0 c0 -5 -7 -10 -15 -10 -8 0 -15 -4 -15 -8 0
-10 45 -32 65 -32 8 0 15 -5 15 -11 0 -7 -7 -8 -17 -4 -10 4 -28 10 -40 12
-29 7 -39 34 -17 50 21 16 24 16 24 3z m-1937 -21 c-11 -12 -26 -18 -32 -15
-19 12 -12 25 17 29 15 2 29 5 32 6 2 0 -5 -9 -17 -20z m82 12 c3 -5 1 -12 -5
-16 -5 -3 -10 1 -10 9 0 18 6 21 15 7z m3030 -1 c3 -5 0 -18 -7 -29 -9 -15
-15 -17 -25 -9 -17 13 -17 35 0 41 19 8 25 8 32 -3z m5207 -42 c-9 -9 -12 -4
-11 23 0 32 1 33 11 11 8 -17 8 -26 0 -34z m-6842 32 c0 -5 -4 -10 -10 -10 -5
0 -10 5 -10 10 0 6 5 10 10 10 6 0 10 -4 10 -10z m4577 -49 c0 -27 3 -53 6
-58 4 -6 -2 -18 -13 -28 -13 -12 -20 -14 -20 -6 0 8 -8 10 -22 6 -13 -3 -18
-3 -12 2 6 4 17 38 24 75 14 80 37 85 37 9z m-4022 39 c-3 -5 -12 -7 -20 -3
-21 7 -19 13 6 13 11 0 18 -4 14 -10z m3952 -12 c-3 -8 -6 -5 -6 6 -1 11 2 17
5 13 3 -3 4 -12 1 -19z m193 12 c0 -5 -2 -10 -4 -10 -3 0 -8 5 -11 10 -3 6 -1
10 4 10 6 0 11 -4 11 -10z m-670 -10 c0 -5 -4 -10 -9 -10 -6 0 -13 5 -16 10
-3 6 1 10 9 10 9 0 16 -4 16 -10z m-3700 -10 c0 -5 -8 -10 -17 -10 -15 0 -16
2 -3 10 19 12 20 12 20 0z m66 -39 c2 -2 10 4 18 14 12 17 13 17 19 -4 4 -18
1 -21 -23 -21 -28 0 -41 16 -39 48 0 11 4 8 10 -8 6 -13 12 -26 15 -29z m5804
39 c0 -5 -4 -10 -10 -10 -5 0 -10 5 -10 10 0 6 5 10 10 10 6 0 10 -4 10 -10z
m-6382 -19 c3 -8 -1 -12 -9 -9 -7 2 -15 10 -17 17 -3 8 1 12 9 9 7 -2 15 -10
17 -17z m85 -6 c-7 -21 -13 -19 -13 6 0 11 4 18 10 14 5 -3 7 -12 3 -20z m650
18 c-7 -2 -19 -2 -25 0 -7 3 -2 5 12 5 14 0 19 -2 13 -5z m-693 -28 c0 -8 -4
-15 -10 -15 -5 0 -10 7 -10 15 0 8 5 15 10 15 6 0 10 -7 10 -15z m483 -2 c-15
-5 -17 -33 -3 -33 6 0 10 -9 10 -20 0 -15 7 -20 28 -21 l27 -2 -27 -4 c-26 -4
-28 -8 -28 -53 0 -38 4 -49 18 -53 16 -4 16 -4 0 -10 -10 -4 -25 -9 -33 -12
-8 -2 -15 -9 -15 -15 0 -5 7 -10 15 -10 8 0 15 -4 15 -10 0 -5 8 -10 18 -10
14 0 15 2 2 10 -12 8 -12 10 5 9 11 0 29 -4 40 -9 19 -8 19 -9 -2 -9 -32 -1
-30 -31 2 -31 19 0 25 -5 25 -22 0 -18 -2 -20 -10 -8 -7 12 -12 12 -34 1 -14
-8 -23 -18 -20 -23 3 -5 11 -5 17 0 7 6 30 7 52 2 30 -5 36 -9 23 -15 -10 -4
-24 -5 -32 -2 -22 9 -26 -18 -5 -34 20 -14 26 -39 10 -39 -5 0 -12 9 -16 19
-4 13 -12 17 -27 13 -18 -4 -20 -2 -16 16 4 16 0 22 -19 27 -32 8 -43 -3 -20
-19 9 -7 17 -18 17 -25 0 -6 11 -11 25 -11 14 0 25 -6 25 -13 0 -19 -21 -37
-42 -37 -19 0 -26 -34 -9 -44 4 -3 6 -17 3 -32 -3 -19 -7 -22 -13 -12 -7 10
-9 9 -9 -4 0 -10 -6 -18 -14 -18 -12 0 -29 48 -31 87 0 7 -4 13 -8 13 -10 0
-9 -5 4 -49 10 -34 9 -41 -9 -59 -13 -13 -28 -19 -41 -15 -25 6 -54 -14 -44
-31 9 -15 -30 15 -40 32 -14 21 -37 14 -37 -12 0 -14 -5 -28 -12 -32 -8 -5 -9
-2 -5 10 4 10 7 26 7 36 0 14 9 20 33 23 31 4 31 4 -5 5 -26 2 -38 7 -38 17 0
8 -6 15 -14 15 -8 0 -16 7 -20 15 -4 11 1 15 19 15 17 0 25 6 25 17 0 13 -3
14 -12 5 -7 -7 -18 -12 -25 -12 -11 0 -11 4 -1 20 10 16 10 24 0 41 -12 18
-11 20 5 17 10 -2 22 -13 28 -26 5 -12 15 -22 22 -22 7 0 13 -4 13 -10 0 -5
-5 -10 -11 -10 -7 0 -9 -9 -5 -24 4 -15 1 -26 -7 -29 -6 -3 8 -6 32 -6 38 -1
43 -3 38 -21 -5 -18 0 -20 38 -20 46 0 65 14 46 33 -8 8 -11 6 -11 -6 0 -25
-16 -21 -25 6 l-8 22 -4 -24 -5 -23 -14 21 c-9 12 -24 21 -34 21 -13 0 -18 7
-17 20 2 25 6 25 23 3 10 -13 13 -14 14 -4 0 8 -8 20 -17 27 -17 13 -17 15 1
29 26 20 39 9 32 -27 -5 -27 -4 -29 10 -17 13 11 17 10 26 -4 5 -10 13 -15 19
-12 14 9 11 25 -4 25 -14 0 -37 40 -37 65 0 8 4 15 10 15 6 0 5 10 -2 25 -13
28 2 55 31 55 9 0 22 5 29 12 6 6 33 11 59 11 36 -1 43 1 26 8 -12 4 -29 19
-39 33 -20 31 -29 32 -51 7 -9 -11 -20 -18 -25 -15 -14 9 -48 -7 -48 -22 0
-17 1 -17 34 -4 21 7 26 6 26 -5 0 -17 -75 -22 -85 -5 -3 6 -16 10 -28 10 -22
-1 -22 -1 -3 -15 11 -8 28 -15 38 -15 20 0 24 -15 7 -26 -6 -3 -9 -17 -6 -31
4 -24 3 -25 -32 -19 -20 4 -49 6 -66 6 -23 -1 -27 2 -17 12 20 20 14 31 -16
25 -21 -4 -36 0 -55 17 -27 23 -36 46 -17 46 5 0 14 -8 20 -17 10 -16 11 -16
4 2 -3 11 -9 30 -11 43 -3 12 -9 22 -14 22 -5 0 -9 -1 -9 -2 0 -2 -7 -21 -15
-43 l-14 -40 -18 42 c-17 40 -33 56 -33 33 0 -15 24 -64 35 -72 5 -4 -2 -8
-16 -8 -19 0 -26 5 -25 18 0 10 -5 16 -13 14 -9 -2 -11 3 -7 13 3 9 6 24 6 33
0 19 52 53 89 59 17 3 22 0 18 -10 -3 -8 -1 -19 5 -25 14 -14 70 -3 81 15 4 7
15 13 22 13 21 0 18 -30 -2 -31 -15 0 -15 -2 2 -9 14 -6 6 -8 -27 -5 -44 3
-61 -6 -38 -20 5 -3 7 -22 4 -41 l-4 -36 25 16 c33 22 50 20 52 -5 2 -27 8
-33 24 -23 9 5 8 10 -5 20 -11 8 -13 14 -7 19 21 12 11 25 -19 25 -16 0 -30 4
-30 9 0 5 21 9 46 9 26 0 51 5 57 11 9 9 5 11 -13 9 -21 -3 -25 2 -28 29 -3
27 -1 31 17 26 16 -4 21 -1 21 16 0 11 6 21 13 22 28 2 113 -2 128 -7 13 -4
14 3 9 45 -3 27 -3 57 1 67 3 11 2 25 -4 33 -9 10 -7 17 8 27 10 8 21 11 24 8
3 -4 0 -9 -6 -11z m-785 -12 c3 -8 -1 -12 -9 -9 -7 2 -15 10 -17 17 -3 8 1 12
9 9 7 -2 15 -10 17 -17z m-1181 -13 c-3 -8 -6 -5 -6 6 -1 11 2 17 5 13 3 -3 4
-12 1 -19z m1546 1 c4 -14 -5 -31 -29 -57 -30 -32 -34 -34 -34 -15 0 12 7 28
15 37 8 8 15 18 15 23 0 8 20 33 26 33 1 0 4 -9 7 -21z m-1494 -53 c-9 -8 -10
-5 -5 14 3 14 6 32 7 40 1 8 4 2 6 -14 3 -16 -1 -34 -8 -40z m1849 52 c17 -17
15 -55 -4 -62 -8 -3 -12 -2 -9 4 3 5 -9 9 -30 8 -19 -1 -38 2 -42 5 -3 4 1 7
10 7 9 0 27 5 41 12 20 9 23 14 15 25 -14 16 3 17 19 1z m212 -24 c0 -16 -8
-27 -22 -33 -29 -11 -38 -6 -38 21 0 14 5 18 16 14 11 -4 18 1 21 14 7 26 23
15 23 -16z m-700 18 c0 -5 13 -8 30 -7 16 1 27 -2 24 -6 -2 -4 -17 -6 -32 -4
-15 2 -33 4 -40 4 -7 1 -10 6 -7 11 8 12 25 13 25 2z m420 -2 c-20 -13 -53
-13 -45 0 3 6 18 10 33 10 21 0 24 -2 12 -10z m195 -10 c-3 -5 -13 -10 -21
-10 -8 0 -12 5 -9 10 3 6 13 10 21 10 8 0 12 -4 9 -10z m5960 -18 c-6 -7 -34
11 -29 19 3 5 11 3 19 -4 7 -6 12 -13 10 -15z m-6223 -4 c-11 -11 -55 -1 -47
11 2 5 16 6 30 3 17 -3 23 -8 17 -14z m-608 -3 c-4 -8 -8 -15 -10 -15 -2 0 -4
7 -4 15 0 8 4 15 10 15 5 0 7 -7 4 -15z m475 -47 c-1 -22 -2 -21 -12 5 -6 15
-17 27 -24 27 -14 0 -17 12 -6 23 11 12 43 -31 42 -55z m5995 46 c20 -8 21
-24 1 -24 -8 0 -15 -4 -15 -10 0 -5 11 -10 25 -10 16 0 25 -6 25 -15 0 -8 7
-15 15 -15 11 0 14 7 9 25 -6 22 -3 25 24 25 22 0 31 -6 36 -22 10 -38 8 -54
-5 -41 -13 13 -42 6 -33 -8 3 -5 14 -9 24 -9 13 0 17 -5 14 -15 -4 -9 0 -15
10 -15 9 0 16 5 16 10 0 16 27 11 34 -6 10 -27 7 -30 -33 -43 -22 -6 -51 -25
-65 -41 -13 -17 -27 -30 -31 -30 -3 0 -39 23 -80 52 -72 49 -75 52 -60 72 8
12 23 31 32 44 9 13 16 36 17 52 1 30 10 35 40 24z m-6216 -11 c-10 -2 -18
-11 -18 -19 0 -8 -7 -14 -15 -14 -18 0 -20 26 -2 33 6 3 21 5 32 5 17 0 17 -1
3 -5z m50 -20 c-3 -16 -9 -36 -13 -45 -5 -13 -3 -18 9 -18 9 0 16 -4 16 -10 0
-19 -39 -10 -45 10 -7 22 14 90 28 90 5 0 7 -12 5 -27z m-1028 7 c0 -5 -4 -10
-10 -10 -5 0 -10 5 -10 10 0 6 5 10 10 10 6 0 10 -4 10 -10z m1300 -25 c0 -19
-3 -35 -7 -35 -5 0 -25 -4 -46 -9 -24 -6 -39 -5 -44 2 -3 6 -1 7 5 3 8 -5 12
4 12 28 0 34 8 44 23 29 4 -3 2 -12 -4 -19 -6 -8 -6 -14 0 -18 15 -10 42 5 40
23 -2 25 0 31 11 31 6 0 10 -16 10 -35z m60 24 c0 -6 8 -8 19 -4 11 3 22 1 25
-4 8 -12 -30 -35 -43 -27 -12 8 -21 46 -10 46 5 0 9 -5 9 -11z m6860 7 c0 -3
-4 -8 -10 -11 -5 -3 -10 -1 -10 4 0 6 5 11 10 11 6 0 10 -2 10 -4z m-8563 -32
c-9 -9 -28 6 -21 18 4 6 10 6 17 -1 6 -6 8 -13 4 -17z m1963 16 c0 -5 -7 -10
-15 -10 -8 0 -15 -4 -15 -10 0 -5 7 -10 15 -10 8 0 15 -5 15 -11 0 -6 -12 -9
-27 -7 -26 3 -32 17 -24 53 2 10 51 5 51 -5z m-950 -10 c0 -5 -2 -10 -4 -10
-3 0 -8 5 -11 10 -3 6 -1 10 4 10 6 0 11 -4 11 -10z m177 -65 c-1 -1 -13 4
-25 11 -13 6 -19 14 -14 18 6 3 8 16 5 29 -3 12 4 4 16 -17 11 -22 20 -40 18
-41z m271 7 c-19 -8 -24 6 -15 38 l11 35 5 -35 c4 -19 3 -36 -1 -38z m582 48
c0 -11 -7 -20 -15 -20 -8 0 -15 9 -15 20 0 11 7 20 15 20 8 0 15 -9 15 -20z
m5730 0 c0 -5 -2 -10 -4 -10 -3 0 -8 5 -11 10 -3 6 -1 10 4 10 6 0 11 -4 11
-10z m-7716 -21 c-3 -5 -10 -7 -15 -3 -5 3 -7 10 -3 15 3 5 10 7 15 3 5 -3 7
-10 3 -15z m811 11 c-3 -5 -10 -10 -16 -10 -5 0 -9 5 -9 10 0 6 7 10 16 10 8
0 12 -4 9 -10z m200 0 c3 -5 1 -10 -4 -10 -6 0 -11 5 -11 10 0 6 2 10 4 10 3
0 8 -4 11 -10z m735 -5 c0 -8 -4 -15 -9 -15 -13 0 -22 16 -14 24 11 11 23 6
23 -9z m6375 -15 c3 -5 -3 -10 -15 -10 -12 0 -18 5 -15 10 3 6 10 10 15 10 5
0 12 -4 15 -10z m-7255 -10 c0 -5 -2 -10 -4 -10 -3 0 -8 5 -11 10 -3 6 -1 10
4 10 6 0 11 -4 11 -10z m1023 -7 c-7 -2 -19 -2 -25 0 -7 3 -2 5 12 5 14 0 19
-2 13 -5z m64 1 c-3 -3 -12 -4 -19 -1 -8 3 -5 6 6 6 11 1 17 -2 13 -5z m-997
-49 c-7 -8 -16 -15 -21 -15 -13 0 -11 19 4 35 17 19 34 0 17 -20z m415 25 c-3
-5 -10 -10 -16 -10 -5 0 -9 5 -9 10 0 6 7 10 16 10 8 0 12 -4 9 -10z m-525
-10 c0 -5 -7 -10 -15 -10 -8 0 -15 5 -15 10 0 6 7 10 15 10 8 0 15 -4 15 -10z
m7233 -27 c7 -9 5 -13 -7 -13 -11 0 -16 8 -15 28 0 15 3 21 6 12 3 -8 10 -21
16 -27z m-6813 12 c0 -8 -4 -15 -9 -15 -13 0 -22 16 -14 24 11 11 23 6 23 -9z
m640 5 c0 -5 -7 -10 -16 -10 -8 0 -12 5 -9 10 3 6 10 10 16 10 5 0 9 -4 9 -10z
m-1850 -4 c0 -3 -4 -8 -10 -11 -5 -3 -10 -1 -10 4 0 6 5 11 10 11 6 0 10 -2
10 -4z m1937 -18 c-3 -8 -6 -5 -6 6 -1 11 2 17 5 13 3 -3 4 -12 1 -19z m6023
-8 c-8 -5 -19 -9 -25 -9 -5 0 -4 3 3 6 6 2 12 12 12 21 0 13 3 13 12 4 10 -10
10 -15 -2 -22z m-8255 11 c3 -5 1 -12 -5 -16 -5 -3 -10 1 -10 9 0 18 6 21 15
7z m226 -18 c-12 -20 -14 -14 -5 12 4 9 9 14 11 11 3 -2 0 -13 -6 -23z m1160
15 c5 -49 3 -128 -3 -128 -5 0 -8 9 -8 21 0 16 -4 19 -22 14 -20 -6 -21 -6 -7
6 9 8 21 29 27 47 9 27 8 32 -4 32 -8 0 -12 5 -9 10 9 14 25 12 26 -2z m59 -4
c0 -2 -9 -4 -21 -4 -11 0 -18 4 -14 10 5 8 35 3 35 -6z m120 6 c0 -5 -9 -10
-20 -10 -11 0 -20 5 -20 10 0 6 9 10 20 10 11 0 20 -4 20 -10z m644 -22 c9
-12 16 -17 16 -10 0 6 7 12 15 12 8 0 15 -7 15 -15 0 -8 -7 -15 -15 -15 -20 0
-19 -16 1 -24 12 -5 13 -8 2 -20 -11 -12 -14 -11 -21 7 -6 16 -10 18 -19 9
-16 -16 -28 -15 -28 3 0 8 6 15 14 15 23 0 7 48 -18 53 l-21 4 22 2 c12 0 29
-9 37 -21z m-2244 2 c0 -5 -4 -10 -10 -10 -5 0 -10 5 -10 10 0 6 5 10 10 10 6
0 10 -4 10 -10z m520 6 c0 -3 -4 -8 -10 -11 -5 -3 -10 -1 -10 4 0 6 5 11 10
11 6 0 10 -2 10 -4z m1010 -10 c0 -8 -4 -18 -10 -21 -5 -3 -10 3 -10 14 0 12
5 21 10 21 6 0 10 -6 10 -14z m675 -6 c-3 -5 -11 -10 -16 -10 -6 0 -7 5 -4 10
3 6 11 10 16 10 6 0 7 -4 4 -10z m6292 -12 c-3 -8 -6 -5 -6 6 -1 11 2 17 5 13
3 -3 4 -12 1 -19z m-8357 -2 c0 -3 -4 -8 -10 -11 -5 -3 -10 -1 -10 4 0 6 5 11
10 11 6 0 10 -2 10 -4z m1046 -21 c-7 -19 22 -75 40 -75 17 0 19 -17 2 -23
-10 -3 -10 -7 -2 -18 6 -8 8 -24 3 -39 l-7 -25 -1 27 c-1 15 -12 39 -26 54
-14 15 -25 38 -25 50 0 17 -6 24 -20 24 -11 0 -20 5 -20 11 0 5 4 8 9 4 6 -3
15 4 21 15 12 22 35 17 26 -5z m7064 15 c0 -5 -4 -10 -10 -10 -5 0 -10 5 -10
10 0 6 5 10 10 10 6 0 10 -4 10 -10z m70 -11 c0 -5 -7 -9 -15 -9 -8 0 -15 7
-15 15 0 9 6 12 15 9 8 -4 15 -10 15 -15z m-7020 -9 c0 -13 -7 -20 -20 -20
-23 0 -26 10 -8 28 18 18 28 15 28 -8z m302 -21 c1 -50 14 -69 48 -69 17 0 30
5 30 10 0 6 -15 10 -32 10 -25 0 -29 3 -18 10 26 17 60 11 84 -15 13 -14 27
-25 31 -25 4 0 14 -8 21 -17 12 -16 13 -15 14 15 0 19 4 31 10 27 5 -3 7 -25
4 -49 -4 -25 -2 -46 4 -50 6 -3 8 -15 5 -26 -3 -11 0 -20 6 -20 6 0 11 -7 11
-15 0 -23 -31 -18 -37 6 -5 17 -12 20 -45 17 -29 -2 -44 2 -53 15 -7 9 -17 17
-23 17 -5 0 -12 7 -16 15 -3 8 -1 15 3 15 5 0 11 -5 13 -12 3 -7 12 -9 23 -4
14 5 16 9 7 18 -7 7 -12 21 -12 31 0 16 -5 18 -29 14 -57 -12 -100 23 -71 58
6 8 9 19 5 25 -8 12 2 46 11 37 3 -3 6 -20 6 -38z m-141 -10 c-9 -23 -10 -22
-10 11 -1 23 2 31 9 24 7 -7 7 -19 1 -35z m46 19 c-3 -8 -6 -5 -6 6 -1 11 2
17 5 13 3 -3 4 -12 1 -19z m43 7 c0 -8 -4 -15 -10 -15 -5 0 -7 7 -4 15 4 8 8
15 10 15 2 0 4 -7 4 -15z m-330 -5 c0 -5 -5 -10 -11 -10 -5 0 -7 5 -4 10 3 6
8 10 11 10 2 0 4 -4 4 -10z m-547 -25 c4 -8 2 -17 -3 -20 -6 -4 -10 3 -10 14
0 25 6 27 13 6z m393 -12 c-10 -10 -19 5 -10 18 6 11 8 11 12 0 2 -7 1 -15 -2
-18z m274 -13 c0 -44 -9 -50 -28 -20 -10 16 -10 24 0 40 19 30 28 24 28 -20z
m6934 25 c3 -8 1 -15 -4 -15 -6 0 -10 7 -10 15 0 8 2 15 4 15 2 0 6 -7 10 -15z
m100 0 c-4 -8 -8 -15 -10 -15 -2 0 -4 7 -4 15 0 8 4 15 10 15 5 0 7 -7 4 -15z
m-7074 -5 c0 -5 -9 -10 -20 -10 -11 0 -20 5 -20 10 0 6 9 10 20 10 11 0 20 -4
20 -10z m-1280 -10 c0 -5 -2 -10 -4 -10 -3 0 -8 5 -11 10 -3 6 -1 10 4 10 6 0
11 -4 11 -10z m1506 -40 c5 -13 6 -13 15 0 8 11 9 10 4 -8 -5 -19 -2 -23 24
-28 37 -8 51 -24 21 -24 -30 0 -60 18 -60 35 0 20 -17 19 -30 -2 -9 -14 -9
-11 -4 17 8 43 16 59 22 40 2 -8 6 -22 8 -30z m-236 10 c0 -5 -9 -10 -21 -10
-11 0 -17 5 -14 10 3 6 13 10 21 10 8 0 14 -4 14 -10z m160 -11 c0 -5 -4 -9
-10 -9 -5 0 -10 7 -10 16 0 8 5 12 10 9 6 -3 10 -10 10 -16z m807 15 c-3 -3
-12 -4 -19 -1 -8 3 -5 6 6 6 11 1 17 -2 13 -5z m-877 -24 c0 -5 -5 -10 -11
-10 -5 0 -7 5 -4 10 3 6 8 10 11 10 2 0 4 -4 4 -10z m6887 -12 c-3 -8 -6 -5
-6 6 -1 11 2 17 5 13 3 -3 4 -12 1 -19z m-6987 2 c0 -5 -2 -10 -4 -10 -3 0 -8
5 -11 10 -3 6 -1 10 4 10 6 0 11 -4 11 -10z m980 -16 c0 -29 -21 -54 -45 -54
-18 0 -18 1 10 47 24 40 35 42 35 7z m-320 6 c0 -5 -16 -10 -36 -10 -21 0 -33
4 -29 10 3 6 19 10 36 10 16 0 29 -4 29 -10z m-610 -10 c0 -5 -4 -10 -10 -10
-5 0 -10 5 -10 10 0 6 5 10 10 10 6 0 10 -4 10 -10z m-130 -10 c0 -5 -9 -10
-20 -10 -11 0 -20 5 -20 10 0 6 9 10 20 10 11 0 20 -4 20 -10z m222 -2 c6 -16
-1 -38 -12 -38 -11 0 -21 30 -14 41 8 13 21 11 26 -3z m867 -30 c1 -5 -3 -8
-9 -8 -5 0 -10 12 -9 28 0 24 1 25 9 7 5 -11 9 -23 9 -27z m-1192 10 c-3 -8
-6 -5 -6 6 -1 11 2 17 5 13 3 -3 4 -12 1 -19z m393 0 c0 -19 -2 -20 -10 -8
-13 19 -13 30 0 30 6 0 10 -10 10 -22z m-273 -38 c1 -22 1 -22 -4 -2 -5 27
-12 28 -29 5 -13 -17 -13 -17 -14 0 0 10 -8 17 -20 17 -11 0 -20 4 -20 8 0 5
19 6 43 3 36 -5 42 -10 44 -31z m323 2 c0 -7 -4 -10 -10 -7 -5 3 -10 16 -10
28 0 18 2 19 10 7 5 -8 10 -21 10 -28z m-203 22 c-3 -3 -12 -4 -19 -1 -8 3 -5
6 6 6 11 1 17 -2 13 -5z m237 -15 c13 -19 14 -20 18 -2 3 14 9 8 28 -24 24
-44 53 -56 64 -28 3 8 13 15 22 15 13 0 14 -3 5 -14 -10 -12 -7 -15 21 -19 18
-3 0 -4 -39 -3 -65 1 -73 0 -73 -17 0 -10 -5 -15 -10 -12 -6 4 -8 14 -6 23 7
22 -9 49 -18 33 -10 -16 -31 8 -38 42 -6 32 5 35 26 6z m-170 2 c3 -5 -3 -11
-13 -14 -14 -3 -18 -1 -14 9 6 16 19 18 27 5z m236 0 c0 -6 -4 -13 -10 -16 -5
-3 -10 1 -10 9 0 9 5 16 10 16 6 0 10 -4 10 -9z m520 -12 c0 -5 -7 -9 -15 -9
-15 0 -20 12 -9 23 8 8 24 -1 24 -14z m100 1 c0 -5 -4 -10 -10 -10 -5 0 -10 5
-10 10 0 6 5 10 10 10 6 0 10 -4 10 -10z m-1140 -9 c0 -12 -20 -25 -27 -18 -7
7 6 27 18 27 5 0 9 -4 9 -9z m408 -33 c-3 -7 -11 -13 -18 -13 -7 0 -15 6 -17
13 -3 7 4 12 17 12 13 0 20 -5 18 -12z m650 -5 c6 -19 -25 -16 -32 3 -4 11 -1
14 11 12 9 -2 18 -9 21 -15z m79 -9 c-3 -3 -12 -4 -19 -1 -8 3 -5 6 6 6 11 1
17 -2 13 -5z m-1047 -13 c0 -6 -4 -13 -10 -16 -5 -3 -10 1 -10 9 0 9 5 16 10
16 6 0 10 -4 10 -9z m601 -14 c-1 -12 -15 -9 -19 4 -3 6 1 10 8 8 6 -3 11 -8
11 -12z m-498 -17 c-3 -11 -7 -20 -9 -20 -2 0 -4 9 -4 20 0 11 4 20 9 20 5 0
7 -9 4 -20z m387 -5 c0 -9 -6 -12 -15 -9 -8 4 -12 10 -9 15 8 14 24 10 24 -6z
m67 9 c-3 -3 -12 -4 -19 -1 -8 3 -5 6 6 6 11 1 17 -2 13 -5z m-620 -36 c-3 -8
-6 -5 -6 6 -1 11 2 17 5 13 3 -3 4 -12 1 -19z m123 -8 c-8 -5 -19 -10 -25 -10
-5 0 -3 5 5 10 8 5 20 10 25 10 6 0 3 -5 -5 -10z m525 -19 c3 -5 1 -12 -5 -16
-5 -3 -10 1 -10 9 0 18 6 21 15 7z"/>
<path d="M1970 1045 c0 -38 3 -45 20 -45 24 0 26 15 4 24 -29 11 4 38 37 31
15 -3 30 -1 34 4 4 7 -6 11 -25 11 -17 0 -40 5 -51 10 -17 10 -19 7 -19 -35z"/>
<path d="M1717 1028 c-14 -12 -14 -15 -1 -33 13 -17 16 -18 24 -5 6 9 6 16 0
18 -5 2 -6 10 -3 18 6 17 2 18 -20 2z"/>
<path d="M2042 905 c0 -11 3 -31 8 -45 6 -22 8 -23 15 -6 5 10 4 21 -2 25 -6
3 -13 15 -16 26 l-5 20 0 -20z"/>
<path d="M2119 868 c-5 -16 -3 -58 3 -58 4 0 8 14 8 30 0 17 -2 30 -5 30 -3 0
-5 -1 -6 -2z"/>
<path d="M1732 830 c0 -14 2 -19 5 -12 2 6 2 18 0 25 -3 6 -5 1 -5 -13z"/>
<path d="M1764 824 c-4 -10 -9 -23 -12 -28 -3 -5 0 -6 6 -2 6 3 14 1 18 -5 3
-6 0 -15 -7 -20 -10 -6 -8 -9 10 -9 21 0 23 3 17 32 -8 42 -23 57 -32 32z"/>
<path d="M4003 3390 c-3 -11 -12 -20 -19 -20 -8 0 -14 -4 -14 -10 0 -11 6 -12
38 -4 15 4 22 14 22 30 0 29 -20 32 -27 4z"/>
<path d="M5555 3360 c3 -5 8 -10 11 -10 2 0 4 5 4 10 0 6 -5 10 -11 10 -5 0
-7 -4 -4 -10z"/>
<path d="M5260 3220 c0 -5 5 -10 11 -10 5 0 7 5 4 10 -3 6 -8 10 -11 10 -2 0
-4 -4 -4 -10z"/>
<path d="M2875 2790 c-3 -5 -1 -10 4 -10 6 0 11 5 11 10 0 6 -2 10 -4 10 -3 0
-8 -4 -11 -10z"/>
<path d="M2327 2727 c-3 -7 3 -13 14 -13 13 0 15 3 7 13 -6 7 -12 13 -13 13
-2 0 -5 -6 -8 -13z"/>
<path d="M2280 2674 c-6 -14 -14 -23 -19 -20 -5 3 -17 -7 -27 -22 -10 -15 -24
-33 -32 -41 -12 -12 -10 -17 12 -37 31 -30 51 -32 34 -4 -11 16 -9 23 10 41
26 24 45 66 38 85 -3 8 5 14 22 17 l27 4 -28 2 c-21 1 -30 -5 -37 -25z m-25
-54 c3 -5 1 -10 -4 -10 -6 0 -11 5 -11 10 0 6 2 10 4 10 3 0 8 -4 11 -10z"/>
<path d="M2870 2670 c0 -5 5 -10 10 -10 6 0 10 5 10 10 0 6 -4 10 -10 10 -5 0
-10 -4 -10 -10z"/>
<path d="M2870 2630 c0 -5 5 -10 10 -10 6 0 10 5 10 10 0 6 -4 10 -10 10 -5 0
-10 -4 -10 -10z"/>
<path d="M2322 2618 c2 -6 10 -14 16 -16 7 -2 10 2 6 12 -7 18 -28 22 -22 4z"/>
<path d="M2850 2580 c0 -5 5 -10 10 -10 6 0 10 5 10 10 0 6 -4 10 -10 10 -5 0
-10 -4 -10 -10z"/>
<path d="M4880 2570 c0 -5 7 -10 16 -10 8 0 12 5 9 10 -3 6 -10 10 -16 10 -5
0 -9 -4 -9 -10z"/>
<path d="M2820 2553 c0 -28 -8 -29 -26 -5 -12 15 -13 15 -14 1 0 -9 7 -19 15
-23 9 -3 15 -18 15 -35 0 -16 4 -32 9 -36 14 -8 25 80 12 102 -10 17 -10 16
-11 -4z"/>
<path d="M2296 2553 c-11 -11 -6 -23 9 -23 8 0 15 4 15 9 0 13 -16 22 -24 14z"/>
<path d="M2291 2494 c0 -11 3 -14 6 -6 3 7 2 16 -1 19 -3 4 -6 -2 -5 -13z"/>
<path d="M2762 2470 c0 -14 2 -19 5 -12 2 6 2 18 0 25 -3 6 -5 1 -5 -13z"/>
<path d="M6610 2453 c-13 -15 -12 -16 4 -10 10 4 20 7 22 7 2 0 4 5 4 10 0 15
-13 12 -30 -7z"/>
<path d="M2790 2410 c0 -5 7 -10 15 -10 8 0 15 5 15 10 0 6 -7 10 -15 10 -8 0
-15 -4 -15 -10z"/>
<path d="M6640 2290 c0 -10 -5 -30 -11 -44 -9 -19 -9 -28 2 -39 12 -11 14 -5
16 45 1 32 0 58 -3 58 -2 0 -4 -9 -4 -20z"/>
<path d="M2830 2240 c-13 -8 -12 -10 3 -10 9 0 17 5 17 10 0 12 -1 12 -20 0z"/>
<path d="M6843 2223 c-10 -16 -13 -16 -22 -3 -13 18 -14 1 -2 -19 6 -10 10
-10 16 -1 6 9 10 9 16 -1 6 -10 9 -6 9 14 0 32 -1 33 -17 10z"/>
<path d="M6665 2220 c-3 -5 -1 -10 4 -10 6 0 11 5 11 10 0 6 -2 10 -4 10 -3 0
-8 -4 -11 -10z"/>
<path d="M6687 2200 c-3 -13 0 -20 9 -20 15 0 19 26 5 34 -5 3 -11 -3 -14 -14z"/>
<path d="M2870 2193 c0 -13 5 -23 10 -23 13 0 13 11 0 30 -8 12 -10 11 -10 -7z"/>
<path d="M6777 2193 c-4 -3 -7 -13 -7 -21 0 -12 3 -12 15 -2 8 7 15 16 15 21
0 11 -14 12 -23 2z"/>
<path d="M2275 2170 c-3 -5 -1 -10 4 -10 6 0 11 5 11 10 0 6 -2 10 -4 10 -3 0
-8 -4 -11 -10z"/>
<path d="M2201 2144 c0 -11 3 -14 6 -6 3 7 2 16 -1 19 -3 4 -6 -2 -5 -13z"/>
<path d="M6803 2142 c-10 -14 -13 -15 -22 -3 -8 12 -12 12 -25 -2 -10 -10 -12
-18 -6 -22 5 -3 10 -1 10 6 0 10 3 10 12 1 18 -18 36 -14 43 9 9 27 2 33 -12
11z"/>
<path d="M6846 2147 c3 -10 9 -15 12 -12 3 3 0 11 -7 18 -10 9 -11 8 -5 -6z"/>
<path d="M7540 2149 c0 -5 5 -7 10 -4 6 3 10 8 10 11 0 2 -4 4 -10 4 -5 0 -10
-5 -10 -11z"/>
<path d="M7565 2130 c-3 -5 -1 -10 4 -10 6 0 11 5 11 10 0 6 -2 10 -4 10 -3 0
-8 -4 -11 -10z"/>
<path d="M6835 2110 c-3 -5 -1 -10 4 -10 6 0 11 5 11 10 0 6 -2 10 -4 10 -3 0
-8 -4 -11 -10z"/>
<path d="M7601 2111 c-17 -11 -7 -41 14 -41 8 0 15 -6 15 -12 1 -19 47 -68 64
-68 8 0 31 -16 52 -35 38 -36 50 -41 72 -26 11 6 8 14 -11 34 -14 13 -28 23
-31 20 -3 -3 -16 7 -29 21 -13 14 -29 26 -34 26 -13 0 -83 68 -83 80 0 12 -11
12 -29 1z"/>
<path d="M2190 2090 c0 -11 5 -20 10 -20 6 0 10 9 10 20 0 11 -4 20 -10 20 -5
0 -10 -9 -10 -20z"/>
<path d="M6697 2103 c-4 -3 -7 -13 -7 -22 1 -13 3 -13 11 2 11 19 8 33 -4 20z"/>
<path d="M6635 2080 c4 -6 11 -8 16 -5 14 9 11 15 -7 15 -8 0 -12 -5 -9 -10z"/>
<path d="M6766 2074 c-9 -24 -7 -28 9 -14 17 14 20 30 6 30 -5 0 -12 -7 -15
-16z"/>
<path d="M2951 2064 c0 -11 3 -14 6 -6 3 7 2 16 -1 19 -3 4 -6 -2 -5 -13z"/>
<path d="M6857 2062 c-10 -10 -17 -27 -17 -38 0 -17 2 -16 16 4 11 16 22 21
36 17 19 -7 19 -6 1 14 -21 25 -16 25 -36 3z"/>
<path d="M2770 2049 c0 -5 5 -7 10 -4 6 3 10 8 10 11 0 2 -4 4 -10 4 -5 0 -10
-5 -10 -11z"/>
<path d="M6672 2048 c-14 -14 -16 -28 -3 -28 5 0 11 9 14 20 6 23 5 24 -11 8z"/>
<path d="M2290 2005 c0 -18 19 -40 26 -32 4 4 0 15 -9 24 -9 10 -17 13 -17 8z"/>
<path d="M2258 1988 c5 -7 12 -22 14 -33 4 -18 6 -18 12 -3 5 11 2 23 -7 33
-19 18 -34 20 -19 3z"/>
<path d="M2165 1960 c-3 -5 3 -10 15 -10 12 0 18 5 15 10 -3 6 -10 10 -15 10
-5 0 -12 -4 -15 -10z"/>
<path d="M2220 1955 c0 -8 5 -15 10 -15 6 0 10 7 10 15 0 8 -4 15 -10 15 -5 0
-10 -7 -10 -15z"/>
<path d="M2641 1954 c0 -11 3 -14 6 -6 3 7 2 16 -1 19 -3 4 -6 -2 -5 -13z"/>
<path d="M8005 1960 c3 -5 10 -10 16 -10 5 0 9 5 9 10 0 6 -7 10 -16 10 -8 0
-12 -4 -9 -10z"/>
<path d="M2795 1940 c-3 -5 1 -10 10 -10 9 0 13 5 10 10 -3 6 -8 10 -10 10 -2
0 -7 -4 -10 -10z"/>
<path d="M2851 1933 c-1 -13 -5 -23 -10 -23 -4 0 -6 -12 -3 -27 5 -27 6 -26
14 11 5 22 6 44 4 50 -2 6 -5 1 -5 -11z"/>
<path d="M2443 1925 c-3 -9 -3 -18 -1 -21 3 -3 8 4 11 16 6 23 -1 27 -10 5z"/>
<path d="M8120 1930 c0 -5 5 -10 11 -10 5 0 7 5 4 10 -3 6 -8 10 -11 10 -2 0
-4 -4 -4 -10z"/>
<path d="M2138 1923 c7 -3 16 -2 19 1 4 3 -2 6 -13 5 -11 0 -14 -3 -6 -6z"/>
<path d="M2189 1917 c6 -8 8 -17 4 -20 -3 -4 -1 -7 5 -7 7 0 12 9 12 20 0 12
-7 20 -16 20 -13 0 -14 -3 -5 -13z"/>
<path d="M2973 1923 c9 -2 23 -2 30 0 6 3 -1 5 -18 5 -16 0 -22 -2 -12 -5z"/>
<path d="M7838 1925 c-11 -11 16 -52 44 -68 15 -9 28 -23 28 -31 0 -17 51 -56
74 -56 9 0 16 -6 16 -13 0 -7 15 -21 34 -31 19 -10 37 -28 40 -39 7 -27 23
-12 28 25 2 20 -6 36 -31 62 -19 20 -40 36 -47 36 -6 0 -17 7 -24 16 -8 8 -27
22 -44 29 -44 21 -69 37 -84 58 -13 17 -24 21 -34 12z"/>
<path d="M2251 1904 c0 -11 3 -14 6 -6 3 7 2 16 -1 19 -3 4 -6 -2 -5 -13z"/>
<path d="M2406 1912 c-10 -16 1 -32 22 -32 11 0 13 3 6 8 -6 4 -13 14 -16 22
-3 10 -6 11 -12 2z"/>
<path d="M7955 1910 c4 -6 11 -8 16 -5 14 9 11 15 -7 15 -8 0 -12 -5 -9 -10z"/>
<path d="M8017 1913 c-12 -11 -8 -23 8 -23 8 0 15 7 15 15 0 16 -12 20 -23 8z"/>
<path d="M2350 1901 c0 -10 19 -25 25 -20 1 2 -3 10 -11 17 -8 7 -14 8 -14 3z"/>
<path d="M2620 1897 c0 -10 8 -17 18 -17 9 0 13 4 7 8 -5 4 -13 11 -17 16 -5
5 -8 2 -8 -7z"/>
<path d="M2754 1896 c-11 -8 -15 -18 -10 -23 5 -4 11 -2 13 5 3 6 10 9 15 6 6
-4 8 -2 4 4 -3 6 2 13 11 15 14 4 14 5 2 6 -8 0 -24 -5 -35 -13z"/>
<path d="M2885 1900 c-3 -5 1 -10 9 -10 9 0 16 5 16 10 0 6 -4 10 -9 10 -6 0
-13 -4 -16 -10z"/>
<path d="M2156 1885 c4 -8 10 -15 15 -15 5 0 9 7 9 15 0 8 -7 15 -15 15 -9 0
-12 -6 -9 -15z"/>
<path d="M2462 1891 c4 -13 18 -16 19 -4 0 4 -5 9 -11 12 -7 2 -11 -2 -8 -8z"/>
<path d="M2800 1876 c0 -8 4 -17 9 -20 5 -4 7 3 4 14 -6 23 -13 26 -13 6z"/>
<path d="M7978 1883 c7 -3 16 -2 19 1 4 3 -2 6 -13 5 -11 0 -14 -3 -6 -6z"/>
<path d="M8265 1870 c5 -17 1 -21 -24 -26 -16 -4 -32 -12 -35 -20 -4 -11 5
-14 35 -14 26 0 42 -5 45 -15 4 -8 10 -15 15 -15 5 0 9 7 9 15 0 8 -6 15 -13
15 -9 0 -11 12 -9 40 3 32 1 40 -13 40 -12 0 -15 -5 -10 -20z"/>
<path d="M8371 1874 c0 -11 3 -14 6 -6 3 7 2 16 -1 19 -3 4 -6 -2 -5 -13z"/>
<path d="M8020 1865 c7 -8 17 -15 22 -15 6 0 5 7 -2 15 -7 8 -17 15 -22 15 -6
0 -5 -7 2 -15z"/>
<path d="M8060 1870 c0 -15 48 -42 61 -34 8 5 4 13 -12 25 -26 20 -49 25 -49
9z"/>
<path d="M2435 1850 c3 -5 8 -10 11 -10 2 0 4 5 4 10 0 6 -5 10 -11 10 -5 0
-7 -4 -4 -10z"/>
<path d="M6663 1835 c-10 -22 -9 -25 8 -25 14 0 19 7 19 25 0 32 -12 32 -27 0z"/>
<path d="M2036 1832 c-7 -12 22 -45 33 -37 6 3 11 10 11 15 0 13 -38 32 -44
22z"/>
<path d="M2820 1828 c0 -9 7 -19 16 -22 15 -6 15 -4 3 11 -7 10 -15 20 -16 22
-2 2 -3 -3 -3 -11z"/>
<path d="M8130 1820 c0 -5 5 -10 10 -10 6 0 10 5 10 10 0 6 -4 10 -10 10 -5 0
-10 -4 -10 -10z"/>
<path d="M2660 1816 c0 -2 7 -6 15 -10 8 -3 15 -1 15 4 0 6 -7 10 -15 10 -8 0
-15 -2 -15 -4z"/>
<path d="M8525 1801 c-31 -6 -45 -35 -27 -53 17 -17 52 1 52 27 0 14 7 25 18
28 27 7 -8 6 -43 -2z"/>
<path d="M8805 1771 c-3 -6 1 -14 9 -17 8 -3 18 -14 21 -25 8 -24 25 -15 25
12 0 13 -4 18 -12 13 -6 -4 -17 1 -24 10 -8 11 -14 13 -19 7z"/>
<path d="M9018 1653 c7 -3 16 -2 19 1 4 3 -2 6 -13 5 -11 0 -14 -3 -6 -6z"/>
<path d="M9240 1639 c0 -5 5 -7 10 -4 6 3 10 8 10 11 0 2 -4 4 -10 4 -5 0 -10
-5 -10 -11z"/>
<path d="M555 1591 c-3 -5 -2 -12 3 -15 5 -3 9 1 9 9 0 17 -3 19 -12 6z"/>
<path d="M430 1516 c0 -2 7 -9 15 -16 13 -11 14 -10 9 4 -5 14 -24 23 -24 12z"/>
<path d="M267 1489 c7 -7 15 -10 18 -7 3 3 -2 9 -12 12 -14 6 -15 5 -6 -5z"/>
<path d="M190 1430 c0 -5 5 -10 11 -10 5 0 7 5 4 10 -3 6 -8 10 -11 10 -2 0
-4 -4 -4 -10z"/>
<path d="M5716 1235 c-3 -8 -1 -15 4 -15 6 0 10 7 10 15 0 8 -2 15 -4 15 -2 0
-6 -7 -10 -15z"/>
<path d="M4325 890 c4 -6 11 -8 16 -5 14 9 11 15 -7 15 -8 0 -12 -5 -9 -10z"/>
<path d="M4685 520 c-3 -5 1 -10 10 -10 9 0 13 5 10 10 -3 6 -8 10 -10 10 -2
0 -7 -4 -10 -10z"/>
</g>
</svg>
